<?xml version="1.0" encoding="UTF-8" standalone="no"?>
<!-- Created with Inkscape (http://www.inkscape.org/) -->

<svg
   version="1.1"
   id="svg1"
   width="794.46643"
   height="451.20001"
   viewBox="0 0 794.46643 451.20001"
   xmlns="http://www.w3.org/2000/svg"
   xmlns:svg="http://www.w3.org/2000/svg">
  <defs
     id="defs1">
    <clipPath
       clipPathUnits="userSpaceOnUse"
       id="clipPath17">
      <path
         d="M 47.599159,45.827969 H 446.4 V 331.2 H 47.599159 Z"
         id="path17" />
    </clipPath>
    <clipPath
       clipPathUnits="userSpaceOnUse"
       id="clipPath20">
      <path
         d="M 47.599159,45.827969 H 446.4 V 331.2 H 47.599159 Z"
         id="path20" />
    </clipPath>
    <clipPath
       clipPathUnits="userSpaceOnUse"
       id="clipPath23">
      <path
         d="M 47.599159,45.827969 H 446.4 V 331.2 H 47.599159 Z"
         id="path23" />
    </clipPath>
    <clipPath
       clipPathUnits="userSpaceOnUse"
       id="clipPath26">
      <path
         d="M 47.599159,45.827969 H 446.4 V 331.2 H 47.599159 Z"
         id="path26" />
    </clipPath>
    <clipPath
       clipPathUnits="userSpaceOnUse"
       id="clipPath29">
      <path
         d="M 47.599159,45.827969 H 446.4 V 331.2 H 47.599159 Z"
         id="path29" />
    </clipPath>
    <clipPath
       clipPathUnits="userSpaceOnUse"
       id="clipPath32">
      <path
         d="M 47.599159,45.827969 H 446.4 V 331.2 H 47.599159 Z"
         id="path32" />
    </clipPath>
    <clipPath
       clipPathUnits="userSpaceOnUse"
       id="clipPath35">
      <path
         d="M 47.599159,45.827969 H 446.4 V 331.2 H 47.599159 Z"
         id="path35" />
    </clipPath>
    <clipPath
       clipPathUnits="userSpaceOnUse"
       id="clipPath42">
      <path
         d="M 54.245839,45.827969 H 71.970321 V 76.025364 H 54.245839 Z"
         id="path42" />
    </clipPath>
    <clipPath
       clipPathUnits="userSpaceOnUse"
       id="clipPath44">
      <path
         d="M 71.970321,45.827969 H 89.694803 V 76.025364 H 71.970321 Z"
         id="path44" />
    </clipPath>
    <clipPath
       clipPathUnits="userSpaceOnUse"
       id="clipPath46">
      <path
         d="M 89.694803,45.827969 H 107.41929 V 76.025364 H 89.694803 Z"
         id="path46" />
    </clipPath>
    <clipPath
       clipPathUnits="userSpaceOnUse"
       id="clipPath48">
      <path
         d="m 120.71265,45.827969 h 17.72448 v 55.668961 h -17.72448 z"
         id="path48" />
    </clipPath>
    <clipPath
       clipPathUnits="userSpaceOnUse"
       id="clipPath50">
      <path
         d="m 138.43713,45.827969 h 17.72448 v 51.25026 h -17.72448 z"
         id="path50" />
    </clipPath>
    <clipPath
       clipPathUnits="userSpaceOnUse"
       id="clipPath52">
      <path
         d="m 156.16161,45.827969 h 17.72448 v 30.211408 h -17.72448 z"
         id="path52" />
    </clipPath>
    <clipPath
       clipPathUnits="userSpaceOnUse"
       id="clipPath54">
      <path
         d="m 187.17945,45.827969 h 17.72448 v 80.340791 h -17.72448 z"
         id="path54" />
    </clipPath>
    <clipPath
       clipPathUnits="userSpaceOnUse"
       id="clipPath56">
      <path
         d="m 204.90393,45.827969 h 17.72449 v 76.526171 h -17.72449 z"
         id="path56" />
    </clipPath>
    <clipPath
       clipPathUnits="userSpaceOnUse"
       id="clipPath58">
      <path
         d="M 222.62842,45.827969 H 240.3529 V 78.675876 H 222.62842 Z"
         id="path58" />
    </clipPath>
    <clipPath
       clipPathUnits="userSpaceOnUse"
       id="clipPath60">
      <path
         d="m 253.64626,45.827969 h 17.72448 V 146.42761 h -17.72448 z"
         id="path60" />
    </clipPath>
    <clipPath
       clipPathUnits="userSpaceOnUse"
       id="clipPath62">
      <path
         d="m 271.37074,45.827969 h 17.72448 V 146.65744 h -17.72448 z"
         id="path62" />
    </clipPath>
    <clipPath
       clipPathUnits="userSpaceOnUse"
       id="clipPath64">
      <path
         d="m 289.09522,45.827969 h 17.72449 v 38.443677 h -17.72449 z"
         id="path64" />
    </clipPath>
    <clipPath
       clipPathUnits="userSpaceOnUse"
       id="clipPath66">
      <path
         d="m 320.11307,45.827969 h 17.72448 V 166.92145 h -17.72448 z"
         id="path66" />
    </clipPath>
    <clipPath
       clipPathUnits="userSpaceOnUse"
       id="clipPath68">
      <path
         d="m 337.83755,45.827969 h 17.72448 V 173.41265 h -17.72448 z"
         id="path68" />
    </clipPath>
    <clipPath
       clipPathUnits="userSpaceOnUse"
       id="clipPath70">
      <path
         d="m 355.56203,45.827969 h 17.72448 v 57.912721 h -17.72448 z"
         id="path70" />
    </clipPath>
    <clipPath
       clipPathUnits="userSpaceOnUse"
       id="clipPath72">
      <path
         d="m 386.57987,45.827969 h 17.72449 V 317.60453 h -17.72449 z"
         id="path72" />
    </clipPath>
    <clipPath
       clipPathUnits="userSpaceOnUse"
       id="clipPath74">
      <path
         d="m 404.30436,45.827969 h 17.72448 V 317.60453 h -17.72448 z"
         id="path74" />
    </clipPath>
    <clipPath
       clipPathUnits="userSpaceOnUse"
       id="clipPath76">
      <path
         d="m 422.02884,45.827969 h 17.72448 V 317.60453 h -17.72448 z"
         id="path76" />
    </clipPath>
    <clipPath
       clipPathUnits="userSpaceOnUse"
       id="clipPath79">
      <path
         d="M 47.599159,45.827969 H 446.4 V 331.2 H 47.599159 Z"
         id="path79" />
    </clipPath>
    <clipPath
       clipPathUnits="userSpaceOnUse"
       id="clipPath81">
      <path
         d="M 47.599159,45.827969 H 446.4 V 331.2 H 47.599159 Z"
         id="path81" />
    </clipPath>
    <clipPath
       clipPathUnits="userSpaceOnUse"
       id="clipPath83">
      <path
         d="M 47.599159,45.827969 H 446.4 V 331.2 H 47.599159 Z"
         id="path83" />
    </clipPath>
    <clipPath
       clipPathUnits="userSpaceOnUse"
       id="clipPath85">
      <path
         d="M 47.599159,45.827969 H 446.4 V 331.2 H 47.599159 Z"
         id="path85" />
    </clipPath>
    <clipPath
       clipPathUnits="userSpaceOnUse"
       id="clipPath87">
      <path
         d="M 47.599159,45.827969 H 446.4 V 331.2 H 47.599159 Z"
         id="path87" />
    </clipPath>
    <clipPath
       clipPathUnits="userSpaceOnUse"
       id="clipPath89">
      <path
         d="M 47.599159,45.827969 H 446.4 V 331.2 H 47.599159 Z"
         id="path89" />
    </clipPath>
    <clipPath
       clipPathUnits="userSpaceOnUse"
       id="clipPath91">
      <path
         d="M 47.599159,45.827969 H 446.4 V 331.2 H 47.599159 Z"
         id="path91" />
    </clipPath>
    <clipPath
       clipPathUnits="userSpaceOnUse"
       id="clipPath93">
      <path
         d="M 47.599159,45.827969 H 446.4 V 331.2 H 47.599159 Z"
         id="path93" />
    </clipPath>
    <clipPath
       clipPathUnits="userSpaceOnUse"
       id="clipPath95">
      <path
         d="M 47.599159,45.827969 H 446.4 V 331.2 H 47.599159 Z"
         id="path95" />
    </clipPath>
    <clipPath
       clipPathUnits="userSpaceOnUse"
       id="clipPath97">
      <path
         d="M 47.599159,45.827969 H 446.4 V 331.2 H 47.599159 Z"
         id="path97" />
    </clipPath>
    <clipPath
       clipPathUnits="userSpaceOnUse"
       id="clipPath99">
      <path
         d="M 47.599159,45.827969 H 446.4 V 331.2 H 47.599159 Z"
         id="path99" />
    </clipPath>
    <clipPath
       clipPathUnits="userSpaceOnUse"
       id="clipPath101">
      <path
         d="M 47.599159,45.827969 H 446.4 V 331.2 H 47.599159 Z"
         id="path101" />
    </clipPath>
    <clipPath
       clipPathUnits="userSpaceOnUse"
       id="clipPath103">
      <path
         d="M 47.599159,45.827969 H 446.4 V 331.2 H 47.599159 Z"
         id="path103" />
    </clipPath>
    <clipPath
       clipPathUnits="userSpaceOnUse"
       id="clipPath105">
      <path
         d="M 47.599159,45.827969 H 446.4 V 331.2 H 47.599159 Z"
         id="path105" />
    </clipPath>
    <clipPath
       clipPathUnits="userSpaceOnUse"
       id="clipPath107">
      <path
         d="M 47.599159,45.827969 H 446.4 V 331.2 H 47.599159 Z"
         id="path107" />
    </clipPath>
    <clipPath
       clipPathUnits="userSpaceOnUse"
       id="clipPath109">
      <path
         d="M 47.599159,45.827969 H 446.4 V 331.2 H 47.599159 Z"
         id="path109" />
    </clipPath>
    <clipPath
       clipPathUnits="userSpaceOnUse"
       id="clipPath111">
      <path
         d="M 47.599159,45.827969 H 446.4 V 331.2 H 47.599159 Z"
         id="path111" />
    </clipPath>
    <clipPath
       clipPathUnits="userSpaceOnUse"
       id="clipPath113">
      <path
         d="M 47.599159,45.827969 H 446.4 V 331.2 H 47.599159 Z"
         id="path113" />
    </clipPath>
  </defs>
  <g
     id="g1">
    <path
       id="path2"
       d="M 47.599159,45.827969 H 446.4 V 331.2 H 47.599159 Z"
       style="fill:#ffffff;fill-opacity:1;fill-rule:nonzero;stroke:none"
       transform="matrix(1.3333333,0,0,-1.3333333,0,451.2)" />
    <g
       id="g2"
       aria-label="m&#10;0"
       transform="matrix(1.3333333,0,0,1.3333333,100.39978,413.72161)">
      <path
         id="path3"
         d="m 4.627899,-6.0226548 c 0.7265625,0.6210938 1.5234375,0.9375 1.59375,0.9375 0.1171875,0 0.1171875,-0.1054687 0.1171875,-0.2109375 0,-0.1523437 0,-0.1757812 -0.09375,-0.2226562 C 5.0849302,-6.0226548 4.1239927,-6.8195298 3.4911802,-8.2726548 3.4443052,-8.4132798 3.4208677,-8.448436 3.3388365,-8.448436 c -0.070312,0 -0.09375,0.046875 -0.1523438,0.1640625 -0.6796875,1.6289062 -1.8515625,2.3671875 -2.60156249,2.6953125 -0.1875,0.1054687 -0.19921875,0.1171875 -0.2109375,0.1171875 -0.0351563,0.023437 -0.0351563,0.046875 -0.0351563,0.1757812 0,0.1054688 0,0.2109375 0.1171875,0.2109375 0.0703125,0 0.86718749,-0.328125 1.60546879,-0.9375 v 6.57421876 c -0.7382813,-0.6328125 -1.53515629,-0.94921875 -1.60546879,-0.94921875 -0.1171875,0 -0.1171875,0.1171875 -0.1171875,0.2109375 0,0.15234375 0,0.1874999994 0.09375,0.234375 C 1.6044615,0.55156396 2.565399,1.3367202 3.1864927,2.7898452 c 0.058594,0.1523438 0.082031,0.1757813 0.1523438,0.1757813 0.082031,0 0.1054687,-0.035156 0.1523437,-0.1640625 0.6796875,-1.6171875 1.8515625,-2.36718754 2.6015625,-2.69531254 0.1992188,-0.09375 0.2109375,-0.1054687506 0.2226563,-0.1171875 0.023437,-0.0234375 0.023437,-0.046875 0.023437,-0.17578125 0,-0.09375 0,-0.2109375 -0.1171875,-0.2109375 -0.070312,0 -0.8671875,0.328125 -1.59375,0.94921875 z M 2.4950865,-6.4679673 c 0.3632812,-0.3632812 0.6445312,-0.7851562 0.84375,-1.1484375 0.1992187,0.3632813 0.4804687,0.7851563 0.84375,1.1484375 V 0.98515771 C 3.8193052,1.3601577 3.5380552,1.770314 3.3388365,2.1335952 3.1396177,1.770314 2.8583677,1.3601577 2.4950865,0.98515771 Z m 0,0"
         style="fill:#262626;fill-opacity:1;fill-rule:nonzero;stroke:none" />
      <path
         id="path4"
         d="m 10.657196,-0.80488135 c 0,-0.84375005 -0.105469,-1.45312505 -0.457031,-1.99218755 -0.2343754,-0.3515625 -0.7148442,-0.65625 -1.3242192,-0.65625 -1.78125,0 -1.78125,2.0976563 -1.78125,2.64843755 0,0.55078125 0,2.60156245 1.78125,2.60156245 1.7812502,0 1.7812502,-2.0507812 1.7812502,-2.60156245 z M 8.8759458,1.5857436 c -0.3515625,0 -0.8203125,-0.2109375 -0.9726562,-0.84374995 -0.1054688,-0.4453125 -0.1054688,-1.078125 -0.1054688,-1.640625 0,-0.56250005 0,-1.14843755 0.1054688,-1.57031255 0.1640625,-0.609375 0.65625,-0.7734375 0.9726562,-0.7734375 0.4101563,0 0.8085938,0.2578125 0.9492188,0.703125 0.1289062,0.4101563 0.1289062,0.9726563 0.1289062,1.64062505 0,0.5625 0,1.125 -0.09375,1.6171875 C 9.7079771,1.4099624 9.1806333,1.5857436 8.8759458,1.5857436 Z m 0,0"
         style="fill:#262626;fill-opacity:1;fill-rule:nonzero;stroke:none" />
    </g>
    <g
       id="g4"
       aria-label="m&#10;10"
       transform="matrix(1.3333333,0,0,1.3333333,186.10996,413.72161)">
      <path
         id="path5"
         d="m 4.6284645,-6.0226548 c 0.7265625,0.6210938 1.5234375,0.9375 1.59375,0.9375 0.1171875,0 0.1171875,-0.1054687 0.1171875,-0.2109375 0,-0.1523437 0,-0.1757812 -0.09375,-0.2226562 C 5.0854957,-6.0226548 4.1245582,-6.8195298 3.4917457,-8.2726548 3.4448707,-8.4132798 3.4214332,-8.448436 3.339402,-8.448436 c -0.070312,0 -0.09375,0.046875 -0.1523438,0.1640625 -0.6796875,1.6289062 -1.8515625,2.3671875 -2.60156246,2.6953125 -0.1875,0.1054687 -0.19921875,0.1171875 -0.2109375,0.1171875 -0.0351563,0.023437 -0.0351563,0.046875 -0.0351563,0.1757812 0,0.1054688 0,0.2109375 0.1171875,0.2109375 0.0703125,0 0.86718756,-0.328125 1.60546876,-0.9375 V 0.55156396 C 1.323777,-0.08124854 0.52690199,-0.39765479 0.45658949,-0.39765479 c -0.1171875,0 -0.1171875,0.1171875 -0.1171875,0.2109375 0,0.15234375 0,0.1874999994 0.09375,0.234375 C 1.605027,0.55156396 2.5659645,1.3367202 3.1870582,2.7898452 3.245652,2.942189 3.2690895,2.9656265 3.339402,2.9656265 c 0.082031,0 0.1054687,-0.035156 0.1523437,-0.1640625 0.6796875,-1.6171875 1.8515625,-2.36718754 2.6015625,-2.69531254 0.1992188,-0.09375 0.2109375,-0.1054687506 0.2226563,-0.1171875 0.023437,-0.0234375 0.023437,-0.046875 0.023437,-0.17578125 0,-0.09375 0,-0.2109375 -0.1171875,-0.2109375 -0.070312,0 -0.8671875,0.328125 -1.59375,0.94921875 z M 2.495652,-6.4679673 c 0.3632812,-0.3632812 0.6445312,-0.7851562 0.84375,-1.1484375 0.1992187,0.3632813 0.4804687,0.7851563 0.84375,1.1484375 V 0.98515771 C 3.8198707,1.3601577 3.5386207,1.770314 3.339402,2.1335952 3.1401832,1.770314 2.8589332,1.3601577 2.495652,0.98515771 Z m 0,0"
         style="fill:#262626;fill-opacity:1;fill-rule:nonzero;stroke:none" />
      <path
         id="path6"
         d="m 9.2632301,-3.2423814 c 0,-0.1992187 -0.011719,-0.2109375 -0.2226562,-0.2109375 -0.4921875,0.4804688 -1.1953125,0.4921875 -1.5117188,0.4921875 v 0.28125 c 0.1875,0 0.6914063,0 1.1132813,-0.2226562 v 3.9140625 c 0,0.2578125 0,0.3515625 -0.7617188,0.3515625 H 7.5874489 v 0.28125 c 0.140625,-0.011719 1.078125,-0.035156 1.3710937,-0.035156 0.234375,0 1.1953124,0.023437 1.3710934,0.035156 v -0.28125 h -0.292968 c -0.7734379,0 -0.7734379,-0.09375 -0.7734379,-0.3515625 z m 5.7597659,2.43750005 c 0,-0.84375005 -0.105469,-1.45312505 -0.457032,-1.99218755 -0.234375,-0.3515625 -0.714843,-0.65625 -1.324218,-0.65625 -1.78125,0 -1.78125,2.0976563 -1.78125,2.64843755 0,0.55078125 0,2.60156245 1.78125,2.60156245 1.78125,0 1.78125,-2.0507812 1.78125,-2.60156245 z m -1.78125,2.39062495 c -0.351563,0 -0.820313,-0.2109375 -0.972657,-0.84374995 -0.105468,-0.4453125 -0.105468,-1.078125 -0.105468,-1.640625 0,-0.56250005 0,-1.14843755 0.105468,-1.57031255 0.164063,-0.609375 0.65625,-0.7734375 0.972657,-0.7734375 0.410156,0 0.808593,0.2578125 0.949218,0.703125 0.128907,0.4101563 0.128907,0.9726563 0.128907,1.64062505 0,0.5625 0,1.125 -0.09375,1.6171875 C 14.073777,1.4099624 13.546433,1.5857436 13.241746,1.5857436 Z m 0,0"
         style="fill:#262626;fill-opacity:1;fill-rule:nonzero;stroke:none" />
    </g>
    <g
       id="g6"
       aria-label="m&#10;20"
       transform="matrix(1.3333333,0,0,1.3333333,274.73237,413.72161)">
      <path
         id="path7"
         d="m 4.6274779,-6.0226548 c 0.7265625,0.6210938 1.5234375,0.9375 1.59375,0.9375 0.1171875,0 0.1171875,-0.1054687 0.1171875,-0.2109375 0,-0.1523437 0,-0.1757812 -0.09375,-0.2226562 C 5.0845092,-6.0226548 4.1235717,-6.8195298 3.4907592,-8.2726548 3.4438842,-8.4132798 3.4204467,-8.448436 3.3384154,-8.448436 c -0.070312,0 -0.09375,0.046875 -0.1523437,0.1640625 -0.6796875,1.6289062 -1.8515625,2.3671875 -2.60156254,2.6953125 -0.1875,0.1054687 -0.19921875,0.1171875 -0.2109375,0.1171875 -0.0351563,0.023437 -0.0351563,0.046875 -0.0351563,0.1757812 0,0.1054688 0,0.2109375 0.1171875,0.2109375 0.0703125,0 0.86718744,-0.328125 1.60546884,-0.9375 v 6.57421876 c -0.7382814,-0.6328125 -1.53515634,-0.94921875 -1.60546884,-0.94921875 -0.1171875,0 -0.1171875,0.1171875 -0.1171875,0.2109375 0,0.15234375 0,0.1874999994 0.09375,0.234375 C 1.6040404,0.55156396 2.5649779,1.3367202 3.1860717,2.7898452 c 0.058594,0.1523438 0.082031,0.1757813 0.1523437,0.1757813 0.082031,0 0.1054688,-0.035156 0.1523438,-0.1640625 0.6796875,-1.6171875 1.8515625,-2.36718754 2.6015625,-2.69531254 0.1992187,-0.09375 0.2109375,-0.1054687506 0.2226562,-0.1171875 0.023437,-0.0234375 0.023437,-0.046875 0.023437,-0.17578125 0,-0.09375 0,-0.2109375 -0.1171875,-0.2109375 -0.070312,0 -0.8671875,0.328125 -1.59375,0.94921875 z M 2.4946654,-6.4679673 c 0.3632813,-0.3632812 0.6445313,-0.7851562 0.84375,-1.1484375 0.1992188,0.3632813 0.4804688,0.7851563 0.84375,1.1484375 V 0.98515771 C 3.8188842,1.3601577 3.5376342,1.770314 3.3384154,2.1335952 3.1391967,1.770314 2.8579467,1.3601577 2.4946654,0.98515771 Z m 0,0"
         style="fill:#262626;fill-opacity:1;fill-rule:nonzero;stroke:none" />
      <path
         id="path8"
         d="M 10.574744,0.24980615 H 10.316931 C 10.293494,0.41386865 10.211462,0.8708999 10.105994,0.9412124 10.0474,0.9880874 9.4614623,0.9880874 9.3559935,0.9880874 H 7.9380248 c 0.8085937,-0.71484375 1.078125,-0.92578125 1.5351562,-1.2890625 0.574219,-0.4453125 1.101563,-0.9257813 1.101563,-1.6523438 0,-0.9257812 -0.820313,-1.5 -1.7929692,-1.5 -0.9609375,0 -1.6054688,0.6679688 -1.6054688,1.3710938 0,0.3984375 0.328125,0.4335937 0.4101563,0.4335937 0.1875,0 0.4101562,-0.1289062 0.4101562,-0.4101562 0,-0.1289063 -0.058594,-0.3984375 -0.4570312,-0.3984375 0.234375,-0.5507813 0.7617187,-0.7148438 1.125,-0.7148438 0.7617187,0 1.1601562,0.5976563 1.1601562,1.21875 0,0.6679688 -0.46875,1.19531255 -0.7148437,1.47656255 L 7.2583373,1.3396499 c -0.082031,0.070312 -0.082031,0.09375 -0.082031,0.3046875 h 3.1640627 z m 4.447265,-1.0546875 c 0,-0.84375005 -0.105469,-1.45312505 -0.457031,-1.99218755 -0.234375,-0.3515625 -0.714844,-0.65625 -1.324219,-0.65625 -1.78125,0 -1.78125,2.0976563 -1.78125,2.64843755 0,0.55078125 0,2.60156245 1.78125,2.60156245 1.78125,0 1.78125,-2.0507812 1.78125,-2.60156245 z m -1.78125,2.39062495 c -0.351562,0 -0.820312,-0.2109375 -0.972656,-0.84374995 -0.105469,-0.4453125 -0.105469,-1.078125 -0.105469,-1.640625 0,-0.56250005 0,-1.14843755 0.105469,-1.57031255 0.164062,-0.609375 0.65625,-0.7734375 0.972656,-0.7734375 0.410156,0 0.808594,0.2578125 0.949219,0.703125 0.128906,0.4101563 0.128906,0.9726563 0.128906,1.64062505 0,0.5625 0,1.125 -0.09375,1.6171875 C 14.07279,1.4099624 13.545447,1.5857436 13.240759,1.5857436 Z m 0,0"
         style="fill:#262626;fill-opacity:1;fill-rule:nonzero;stroke:none" />
    </g>
    <g
       id="g8"
       aria-label="m&#10;30"
       transform="matrix(1.3333333,0,0,1.3333333,363.35478,413.72161)">
      <path
         id="path9"
         d="m 4.629421,-6.0226548 c 0.7265625,0.6210938 1.5234375,0.9375 1.59375,0.9375 0.1171875,0 0.1171875,-0.1054687 0.1171875,-0.2109375 0,-0.1523437 0,-0.1757812 -0.09375,-0.2226562 C 5.0864523,-6.0226548 4.1255148,-6.8195298 3.4927023,-8.2726548 3.4458273,-8.4132798 3.4223898,-8.448436 3.3403585,-8.448436 c -0.070312,0 -0.09375,0.046875 -0.1523437,0.1640625 -0.6796875,1.6289062 -1.8515625,2.3671875 -2.60156253,2.6953125 -0.1875,0.1054687 -0.19921875,0.1171875 -0.2109375,0.1171875 -0.0351563,0.023437 -0.0351563,0.046875 -0.0351563,0.1757812 0,0.1054688 0,0.2109375 0.1171875,0.2109375 0.0703125,0 0.86718753,-0.328125 1.60546883,-0.9375 v 6.57421876 c -0.7382813,-0.6328125 -1.53515633,-0.94921875 -1.60546883,-0.94921875 -0.1171875,0 -0.1171875,0.1171875 -0.1171875,0.2109375 0,0.15234375 0,0.1874999994 0.09375,0.234375 C 1.6059835,0.55156396 2.566921,1.3367202 3.1880148,2.7898452 c 0.058594,0.1523438 0.082031,0.1757813 0.1523437,0.1757813 0.082031,0 0.1054688,-0.035156 0.1523438,-0.1640625 0.6796875,-1.6171875 1.8515625,-2.36718754 2.6015625,-2.69531254 0.1992187,-0.09375 0.2109375,-0.1054687506 0.2226562,-0.1171875 0.023437,-0.0234375 0.023437,-0.046875 0.023437,-0.17578125 0,-0.09375 0,-0.2109375 -0.1171875,-0.2109375 -0.070312,0 -0.8671875,0.328125 -1.59375,0.94921875 z M 2.4966085,-6.4679673 c 0.3632813,-0.3632812 0.6445313,-0.7851562 0.84375,-1.1484375 0.1992188,0.3632813 0.4804688,0.7851563 0.84375,1.1484375 V 0.98515771 C 3.8208273,1.3601577 3.5395773,1.770314 3.3403585,2.1335952 3.1411398,1.770314 2.8598898,1.3601577 2.4966085,0.98515771 Z m 0,0"
         style="fill:#262626;fill-opacity:1;fill-rule:nonzero;stroke:none" />
      <path
         id="path10"
         d="m 8.7954366,-0.92206885 c 0.5976563,0 1.03125,0.421875 1.03125,1.2421875 0,0.94921875 -0.5625,1.23046875 -1.0078125,1.23046875 -0.3046875,0 -0.9726562,-0.082031 -1.3007812,-0.5390625 0.3632812,-0.0117188 0.4453125,-0.26953125 0.4453125,-0.421875 0,-0.24609375 -0.1875,-0.421875 -0.421875,-0.421875 -0.2109375,0 -0.4335938,0.12890625 -0.4335938,0.4453125 0,0.7148437 0.796875,1.1835937 1.734375,1.1835937 1.0664063,0 1.8046874,-0.7148437 1.8046874,-1.47656245 0,-0.59765625 -0.492187,-1.1953125 -1.3359374,-1.38281255 0.7968754,-0.28125 1.0898434,-0.8671875 1.0898434,-1.3359375 0,-0.5976562 -0.6914059,-1.0546875 -1.5468746,-1.0546875 -0.8554688,0 -1.5,0.4101563 -1.5,1.03125 0,0.2578125 0.1640625,0.4101563 0.3984375,0.4101563 0.234375,0 0.3867187,-0.1757813 0.3867187,-0.3984375 0,-0.2226563 -0.1523437,-0.3867188 -0.3867187,-0.3984375 0.2695312,-0.3398438 0.796875,-0.421875 1.078125,-0.421875 0.3515625,0 0.8320312,0.1640625 0.8320312,0.8320312 0,0.328125 -0.1054687,0.6796875 -0.3046875,0.9140625 -0.2578125,0.2929688 -0.46875,0.3164063 -0.8554687,0.3398438 -0.1875,0.011719 -0.2109375,0.011719 -0.2460938,0.023437 -0.011719,0 -0.082031,0.011719 -0.082031,0.09375 0,0.10546875 0.070312,0.10546875 0.1992187,0.10546875 z m 6.2285154,0.1171875 c 0,-0.84375005 -0.105468,-1.45312505 -0.457031,-1.99218755 -0.234375,-0.3515625 -0.714844,-0.65625 -1.324219,-0.65625 -1.78125,0 -1.78125,2.0976563 -1.78125,2.64843755 0,0.55078125 0,2.60156245 1.78125,2.60156245 1.78125,0 1.78125,-2.0507812 1.78125,-2.60156245 z m -1.78125,2.39062495 c -0.351562,0 -0.820312,-0.2109375 -0.972656,-0.84374995 -0.105469,-0.4453125 -0.105469,-1.078125 -0.105469,-1.640625 0,-0.56250005 0,-1.14843755 0.105469,-1.57031255 0.164063,-0.609375 0.65625,-0.7734375 0.972656,-0.7734375 0.410157,0 0.808594,0.2578125 0.949219,0.703125 0.128906,0.4101563 0.128906,0.9726563 0.128906,1.64062505 0,0.5625 0,1.125 -0.09375,1.6171875 C 14.074734,1.4099624 13.54739,1.5857436 13.242702,1.5857436 Z m 0,0"
         style="fill:#262626;fill-opacity:1;fill-rule:nonzero;stroke:none" />
    </g>
    <g
       id="g10"
       aria-label="m&#10;40"
       transform="matrix(1.3333333,0,0,1.3333333,451.97719,413.72161)">
      <path
         id="path11"
         d="m 4.6284344,-6.0226548 c 0.7265625,0.6210938 1.5234375,0.9375 1.59375,0.9375 0.1171875,0 0.1171875,-0.1054687 0.1171875,-0.2109375 0,-0.1523437 0,-0.1757812 -0.09375,-0.2226562 C 5.0854657,-6.0226548 4.1245282,-6.8195298 3.4917157,-8.2726548 3.4448407,-8.4132798 3.4214032,-8.448436 3.3393719,-8.448436 c -0.070312,0 -0.09375,0.046875 -0.1523437,0.1640625 -0.6796875,1.6289062 -1.8515625,2.3671875 -2.6015625,2.6953125 -0.1875,0.1054687 -0.19921875,0.1171875 -0.2109375,0.1171875 -0.0351563,0.023437 -0.0351563,0.046875 -0.0351563,0.1757812 0,0.1054688 0,0.2109375 0.1171875,0.2109375 0.0703125,0 0.8671875,-0.328125 1.6054688,-0.9375 v 6.57421876 c -0.7382814,-0.6328125 -1.5351563,-0.94921875 -1.6054688,-0.94921875 -0.1171875,0 -0.1171875,0.1171875 -0.1171875,0.2109375 0,0.15234375 0,0.1874999994 0.09375,0.234375 1.171875,0.50390625 2.1328125,1.28906249 2.7539063,2.74218749 0.058594,0.1523438 0.082031,0.1757813 0.1523437,0.1757813 0.082031,0 0.1054688,-0.035156 0.1523438,-0.1640625 0.6796875,-1.6171875 1.8515625,-2.36718754 2.6015625,-2.69531254 0.1992187,-0.09375 0.2109375,-0.1054687506 0.2226562,-0.1171875 0.023437,-0.0234375 0.023437,-0.046875 0.023437,-0.17578125 0,-0.09375 0,-0.2109375 -0.1171875,-0.2109375 -0.070312,0 -0.8671875,0.328125 -1.59375,0.94921875 z M 2.4956219,-6.4679673 c 0.3632813,-0.3632812 0.6445313,-0.7851562 0.84375,-1.1484375 0.1992188,0.3632813 0.4804688,0.7851563 0.84375,1.1484375 V 0.98515771 C 3.8198407,1.3601577 3.5385907,1.770314 3.3393719,2.1335952 3.1401532,1.770314 2.8589032,1.3601577 2.4956219,0.98515771 Z m 0,0"
         style="fill:#262626;fill-opacity:1;fill-rule:nonzero;stroke:none" />
      <path
         id="path12"
         d="m 10.751481,0.39043115 v -0.28125 H 9.9077313 V -3.3126939 c 0,-0.1640625 0,-0.2109375 -0.1757812,-0.2109375 -0.082031,0 -0.1171875,0 -0.1992188,0.1054688 l -2.53125,3.52734375 v 0.28125 h 2.25 V 1.0115249 c 0,0.2695312 0,0.3515625 -0.6210937,0.3515625 H 8.4194501 v 0.28125 c 0.3867187,-0.011719 0.8789062,-0.035156 1.1601562,-0.035156 0.28125,0 0.7734377,0.023437 1.1601567,0.035156 v -0.28125 h -0.210938 c -0.6210937,0 -0.6210937,-0.082031 -0.6210937,-0.3515625 V 0.39043115 Z M 9.3100751,-2.7033189 V 0.10918115 H 7.2827313 Z m 5.7128909,1.89843755 c 0,-0.84375005 -0.105469,-1.45312505 -0.457032,-1.99218755 -0.234375,-0.3515625 -0.714843,-0.65625 -1.324218,-0.65625 -1.78125,0 -1.78125,2.0976563 -1.78125,2.64843755 0,0.55078125 0,2.60156245 1.78125,2.60156245 1.78125,0 1.78125,-2.0507812 1.78125,-2.60156245 z m -1.78125,2.39062495 c -0.351563,0 -0.820313,-0.2109375 -0.972657,-0.84374995 -0.105468,-0.4453125 -0.105468,-1.078125 -0.105468,-1.640625 0,-0.56250005 0,-1.14843755 0.105468,-1.57031255 0.164063,-0.609375 0.65625,-0.7734375 0.972657,-0.7734375 0.410156,0 0.808593,0.2578125 0.949218,0.703125 0.128907,0.4101563 0.128907,0.9726563 0.128907,1.64062505 0,0.5625 0,1.125 -0.09375,1.6171875 C 14.073747,1.4099624 13.546403,1.5857436 13.241716,1.5857436 Z m 0,0"
         style="fill:#262626;fill-opacity:1;fill-rule:nonzero;stroke:none" />
    </g>
    <g
       id="g12"
       aria-label="m&#10;100"
       transform="matrix(1.3333333,0,0,1.3333333,537.68738,413.72161)">
      <path
         id="path13"
         d="m 4.629,-6.0226548 c 0.7265625,0.6210938 1.5234375,0.9375 1.59375,0.9375 0.1171875,0 0.1171875,-0.1054687 0.1171875,-0.2109375 0,-0.1523437 0,-0.1757812 -0.09375,-0.2226562 C 5.0860312,-6.0226548 4.1250937,-6.8195298 3.4922812,-8.2726548 3.4454062,-8.4132798 3.4219687,-8.448436 3.3399375,-8.448436 c -0.070312,0 -0.09375,0.046875 -0.1523438,0.1640625 -0.6796875,1.6289062 -1.8515625,2.3671875 -2.60156248,2.6953125 -0.1875,0.1054687 -0.19921875,0.1171875 -0.2109375,0.1171875 -0.0351563,0.023437 -0.0351563,0.046875 -0.0351563,0.1757812 0,0.1054688 0,0.2109375 0.1171875,0.2109375 0.0703125,0 0.86718748,-0.328125 1.60546868,-0.9375 v 6.57421876 c -0.7382812,-0.6328125 -1.53515618,-0.94921875 -1.60546868,-0.94921875 -0.1171875,0 -0.1171875,0.1171875 -0.1171875,0.2109375 0,0.15234375 0,0.1874999994 0.09375,0.234375 C 1.6055625,0.55156396 2.5665,1.3367202 3.1875937,2.7898452 c 0.058594,0.1523438 0.082031,0.1757813 0.1523438,0.1757813 0.082031,0 0.1054687,-0.035156 0.1523437,-0.1640625 C 4.1719687,1.1843765 5.3438437,0.43437646 6.0938437,0.10625146 6.2930625,0.01250146 6.3047812,7.827094e-4 6.3165,-0.01093604 c 0.023437,-0.0234375 0.023437,-0.046875 0.023437,-0.17578125 0,-0.09375 0,-0.2109375 -0.1171875,-0.2109375 -0.070312,0 -0.8671875,0.328125 -1.59375,0.94921875 z M 2.4961875,-6.4679673 c 0.3632812,-0.3632812 0.6445312,-0.7851562 0.84375,-1.1484375 0.1992187,0.3632813 0.4804687,0.7851563 0.84375,1.1484375 V 0.98515771 C 3.8204062,1.3601577 3.5391562,1.770314 3.3399375,2.1335952 3.1407187,1.770314 2.8594687,1.3601577 2.4961875,0.98515771 Z m 0,0"
         style="fill:#262626;fill-opacity:1;fill-rule:nonzero;stroke:none" />
      <path
         id="path14"
         d="m 9.2637656,-3.2423814 c 0,-0.1992187 -0.011719,-0.2109375 -0.2226563,-0.2109375 -0.4921875,0.4804688 -1.1953125,0.4921875 -1.5117187,0.4921875 v 0.28125 c 0.1875,0 0.6914062,0 1.1132812,-0.2226562 v 3.9140625 c 0,0.2578125 0,0.3515625 -0.7617187,0.3515625 H 7.5879843 v 0.28125 c 0.140625,-0.011719 1.078125,-0.035156 1.3710938,-0.035156 0.234375,0 1.1953129,0.023437 1.3710939,0.035156 v -0.28125 h -0.292969 c -0.7734374,0 -0.7734374,-0.09375 -0.7734374,-0.3515625 z m 5.7597654,2.43750005 c 0,-0.84375005 -0.105469,-1.45312505 -0.457031,-1.99218755 -0.234375,-0.3515625 -0.714844,-0.65625 -1.324219,-0.65625 -1.78125,0 -1.78125,2.0976563 -1.78125,2.64843755 0,0.55078125 0,2.60156245 1.78125,2.60156245 1.78125,0 1.78125,-2.0507812 1.78125,-2.60156245 z m -1.78125,2.39062495 c -0.351562,0 -0.820312,-0.2109375 -0.972656,-0.84374995 -0.105469,-0.4453125 -0.105469,-1.078125 -0.105469,-1.640625 0,-0.56250005 0,-1.14843755 0.105469,-1.57031255 0.164062,-0.609375 0.65625,-0.7734375 0.972656,-0.7734375 0.410156,0 0.808594,0.2578125 0.949219,0.703125 0.128906,0.4101563 0.128906,0.9726563 0.128906,1.64062505 0,0.5625 0,1.125 -0.09375,1.6171875 C 14.074312,1.4099624 13.546969,1.5857436 13.242281,1.5857436 Z m 6.146485,-2.39062495 c 0,-0.84375005 -0.105469,-1.45312505 -0.457032,-1.99218755 -0.234375,-0.3515625 -0.714843,-0.65625 -1.324218,-0.65625 -1.78125,0 -1.78125,2.0976563 -1.78125,2.64843755 0,0.55078125 0,2.60156245 1.78125,2.60156245 1.78125,0 1.78125,-2.0507812 1.78125,-2.60156245 z m -1.78125,2.39062495 c -0.351563,0 -0.820313,-0.2109375 -0.972657,-0.84374995 -0.105468,-0.4453125 -0.105468,-1.078125 -0.105468,-1.640625 0,-0.56250005 0,-1.14843755 0.105468,-1.57031255 0.164063,-0.609375 0.65625,-0.7734375 0.972657,-0.7734375 0.410156,0 0.808593,0.2578125 0.949218,0.703125 0.128907,0.4101563 0.128907,0.9726563 0.128907,1.64062505 0,0.5625 0,1.125 -0.09375,1.6171875 C 18.439547,1.4099624 17.912203,1.5857436 17.607516,1.5857436 Z m 0,0"
         style="fill:#262626;fill-opacity:1;fill-rule:nonzero;stroke:none" />
    </g>
    <path
       id="path15"
       d="m 6.0115152,-9.995055 h 1.3945313 c 0.1992187,0 0.3867187,0.023437 0.5742187,0.023437 H 10.077921 V -10.97943 H 0.56229648 v 1.0078125 H 2.6599527 c 0.1875,0 0.3867188,-0.023437 0.5742188,-0.023437 h 1.40625 V 0.00103871 H 6.0115152 Z M 17.393351,-4.79193 c 0,-0.9726563 -0.210937,-2.4375 -2.144531,-2.4375 -1.089844,0 -1.828125,0.6210937 -2.214844,1.0898437 V -11.061461 H 11.862101 V 0.00103871 h 1.207031 V -3.9716175 c 0,-0.984375 0.363282,-2.3085938 1.582032,-2.3085938 1.476562,0 1.523437,1.0429688 1.523437,1.59375 v 4.68750001 h 1.21875 z m 3.667969,1.3007812 c 0,-1.6054687 1.207031,-2.6601562 2.636719,-2.671875 V -7.22943 c -1.441407,0.011719 -2.285157,0.8554687 -2.71875,1.4765625 v -1.40625 h -1.101563 v 7.16015621 h 1.183594 z m 9.357422,-0.09375 c 0,-0.6796875 -0.07031,-1.6523437 -0.574219,-2.5078125 -0.65625,-1.0898437 -1.769531,-1.21875 -2.238281,-1.21875 -1.722656,0 -3.152344,1.6523438 -3.152344,3.7265625 0,2.109375 1.523438,3.75000001 3.375,3.75000001 0.738281,0 1.617188,-0.2109375 2.484375,-0.84375 0,-0.0703125 -0.04687,-0.56250001 -0.04687,-0.59765621 -0.01172,-0.011719 -0.04687,-0.3632813 -0.04687,-0.4335938 -0.9375,0.79687501 -1.875,0.91406251 -2.355469,0.91406251 -1.230468,0 -2.285156,-1.10156251 -2.308593,-2.78906251 z m -4.769531,-0.8554687 c 0.269531,-1.078125 1.019531,-1.921875 1.957031,-1.921875 0.492187,0 1.59375,0.2226562 1.863281,1.921875 z m 10.567382,-2.3789063 c -1.019531,-0.4804687 -1.886718,-0.4921875 -2.25,-0.4921875 -0.363281,0 -2.578125,0 -2.578125,2.0742188 0,0.6914062 0.386719,1.171875 0.621094,1.3945312 0.574219,0.4921875 0.972656,0.5742188 1.910156,0.7734375 0.527344,0.1054688 1.453125,0.2929688 1.453125,1.1367188 0,1.10156246 -1.242187,1.10156246 -1.464843,1.10156246 -0.644532,0 -1.570313,-0.17578126 -2.425782,-0.79687496 l -0.1875,1.08984371 c 0.08203,0.046875 1.160157,0.703125 2.625,0.703125 2.0625,0 2.554688,-1.24218751 2.554688,-2.19140621 0,-0.8085938 -0.492188,-1.3242188 -0.5625,-1.3945313 -0.585938,-0.609375 -1.066406,-0.703125 -2.039063,-0.9023437 -0.574218,-0.1054688 -1.382812,-0.2695313 -1.382812,-1.0664063 0,-0.984375 1.113281,-0.984375 1.324219,-0.984375 0.84375,0 1.511718,0.1875 2.214843,0.5859375 z m 7.382813,2.0273438 c 0,-0.9726563 -0.210938,-2.4375 -2.144531,-2.4375 -1.089844,0 -1.828125,0.6210937 -2.214844,1.0898437 V -11.061461 H 38.068156 V 0.00103871 h 1.207031 V -3.9716175 c 0,-0.984375 0.363281,-2.3085938 1.582031,-2.3085938 1.476563,0 1.523438,1.0429688 1.523438,1.59375 v 4.68750001 h 1.21875 z m 8.551758,1.2890625 c 0,-2.15625 -1.570313,-3.8085938 -3.410157,-3.8085938 -1.875,0 -3.421875,1.6875 -3.421875,3.8085938 0,2.0859375 1.59375,3.66796871 3.410157,3.66796871 1.875,0 3.421875,-1.61718751 3.421875,-3.66796871 z m -3.410157,2.67187496 c -1.148437,0 -2.214843,-0.94921876 -2.214843,-2.83593746 0,-1.921875 1.195312,-2.6953125 2.203125,-2.6953125 1.101562,0 2.214843,0.8320312 2.214843,2.6953125 0,1.9570312 -1.136718,2.83593746 -2.203125,2.83593746 z M 55.060343,-11.061461 H 53.87675 V 0.00103871 h 1.183593 z m 7.977539,0 h -1.171875 v 4.6523435 c -0.738281,-0.5976563 -1.570312,-0.8203125 -2.25,-0.8203125 -1.511718,0 -2.753906,1.6171875 -2.753906,3.6914062 0,2.0625 1.171875,3.70312501 2.683594,3.70312501 0.597656,0 1.488281,-0.19921875 2.285156,-0.97265625 v 0.80859375 h 1.207031 z m -1.207031,9.1874997 c -0.386719,0.6796875 -0.9375,1.07812501 -1.640625,1.07812501 -0.972656,0 -2.121094,-0.75000001 -2.121094,-2.73046871 0,-2.109375 1.359375,-2.7539063 2.273438,-2.7539063 0.621094,0 1.136719,0.3164063 1.488281,0.84375 z m 7.828125,-4.9453125 c -1.019531,-0.4804687 -1.886719,-0.4921875 -2.25,-0.4921875 -0.363281,0 -2.578125,0 -2.578125,2.0742188 0,0.6914062 0.386719,1.171875 0.621094,1.3945312 0.574219,0.4921875 0.972656,0.5742188 1.910156,0.7734375 0.527344,0.1054688 1.453125,0.2929688 1.453125,1.1367188 0,1.10156246 -1.242187,1.10156246 -1.464844,1.10156246 -0.644531,0 -1.570312,-0.17578126 -2.425781,-0.79687496 l -0.1875,1.08984371 c 0.08203,0.046875 1.160156,0.703125 2.625,0.703125 2.0625,0 2.554688,-1.24218751 2.554688,-2.19140621 0,-0.8085938 -0.492188,-1.3242188 -0.5625,-1.3945313 -0.585938,-0.609375 -1.066407,-0.703125 -2.039063,-0.9023437 -0.574219,-0.1054688 -1.382812,-0.2695313 -1.382812,-1.0664063 0,-0.984375 1.113281,-0.984375 1.324218,-0.984375 0.84375,0 1.511719,0.1875 2.214844,0.5859375 z m 0,0"
       style="fill:#262626;fill-opacity:1;fill-rule:nonzero;stroke:none"
       aria-label="Thresholds"
       transform="matrix(1.3333333,0,0,1.3333333,282.43387,437.46737)" />
    <path
       id="path16"
       d="M 47.599159,45.827969 H 446.4"
       style="fill:none;stroke:#cccccc;stroke-width:1;stroke-linecap:round;stroke-linejoin:round;stroke-miterlimit:10;stroke-dasharray:none;stroke-opacity:1"
       transform="matrix(1.3333333,0,0,-1.3333333,0,451.2)"
       clip-path="url(#clipPath17)" />
    <path
       id="path18"
       d="m 5.0385117,-3.5051344 c 0,-0.8789063 -0.058594,-1.7578125 -0.4335937,-2.5664063 -0.5039063,-1.0546875 -1.40625,-1.2304687 -1.8632813,-1.2304687 -0.65625,0 -1.4648437,0.2929687 -1.91015624,1.3125 -0.3515625,0.75 -0.41015625,1.6054687 -0.41015625,2.484375 0,0.8203125 0.046875,1.8046875 0.50390625,2.63671872 0.46875004,0.890625 1.26562504,1.11328125 1.80468754,1.11328125 0.5859375,0 1.4179687,-0.234375 1.9101562,-1.27734377 0.3398438,-0.75 0.3984375,-1.6054687 0.3984375,-2.4726562 z M 2.729918,-0.00122818 c -0.4335938,0 -1.078125,-0.26953125 -1.2773438,-1.32421872 -0.1171875,-0.65625 -0.1171875,-1.6640625 -0.1171875,-2.3085938 0,-0.703125 0,-1.4296875 0.09375,-2.015625 0.1992188,-1.3125 1.0195313,-1.40625 1.3007813,-1.40625 0.3632812,0 1.078125,0.1992188 1.2890625,1.2773438 0.1054687,0.6210937 0.1054687,1.453125 0.1054687,2.1445312 0,0.8203125 0,1.5585938 -0.1171875,2.2617188 -0.1640625,1.04296872 -0.7851562,1.37109372 -1.2773437,1.37109372 z m 0,0"
       style="fill:#262626;fill-opacity:1;fill-rule:nonzero;stroke:none"
       aria-label="0"
       transform="matrix(1.3333333,0,0,1.3333333,43.492922,395.16961)" />
    <path
       id="path19"
       d="M 47.599159,87.958225 H 446.4"
       style="fill:none;stroke:#cccccc;stroke-width:1;stroke-linecap:round;stroke-linejoin:round;stroke-miterlimit:10;stroke-dasharray:none;stroke-opacity:1"
       transform="matrix(1.3333333,0,0,-1.3333333,0,451.2)"
       clip-path="url(#clipPath20)" />
    <path
       id="path21"
       d="m 4.9213242,-2.2030027 c 0,-1.3007813 -0.9023437,-2.4023438 -2.0859375,-2.4023438 -0.5273437,0 -0.9960937,0.1757813 -1.3945312,0.5625 V -6.175659 c 0.2226562,0.058594 0.5859375,0.140625 0.9375,0.140625 1.3476562,0 2.109375,-0.9960937 2.109375,-1.1367187 0,-0.070312 -0.023437,-0.1289063 -0.1054688,-0.1289063 -0.011719,0 -0.035156,0 -0.082031,0.035156 -0.2226563,0.1054687 -0.7617188,0.3164062 -1.5,0.3164062 -0.4335938,0 -0.9375,-0.070312 -1.453125,-0.3046875 -0.082031,-0.035156 -0.1054688,-0.035156 -0.1289063,-0.035156 -0.1171875,0 -0.1171875,0.09375 -0.1171875,0.2695312 v 3.234375 c 0,0.1992188 0,0.2929688 0.1640625,0.2929688 0.070312,0 0.09375,-0.035156 0.140625,-0.1054688 0.1171875,-0.1757812 0.5273438,-0.7617187 1.40625,-0.7617187 0.5742188,0 0.84375,0.5039062 0.9375,0.703125 0.1757813,0.3984375 0.1992188,0.8320312 0.1992188,1.3828125 0,0.375 0,1.03125 -0.2695313,1.49999999 -0.2578125,0.421875 -0.6679687,0.703125 -1.171875,0.703125 -0.796875,0 -1.4179687,-0.57421875 -1.60546874,-1.21874999 0.0234375,0.011719 0.0585938,0.023437 0.18750004,0.023437 0.3515625,0 0.5390625,-0.28125 0.5390625,-0.5390625 0,-0.2695313 -0.1875,-0.5390625 -0.5390625,-0.5390625 -0.16406254,0 -0.53906254,0.070312 -0.53906254,0.5742187 0,0.94921879 0.75000004,2.01562504 1.98046874,2.01562504 1.265625,0 2.390625,-1.0546875 2.3906248,-2.44921814 z m 0,0"
       style="fill:#262626;fill-opacity:1;fill-rule:nonzero;stroke:none"
       aria-label="5"
       transform="matrix(1.3333333,0,0,1.3333333,43.492922,338.99593)" />
    <path
       id="path22"
       d="M 47.599159,130.08848 H 446.4"
       style="fill:none;stroke:#cccccc;stroke-width:1;stroke-linecap:round;stroke-linejoin:round;stroke-miterlimit:10;stroke-dasharray:none;stroke-opacity:1"
       transform="matrix(1.3333333,0,0,-1.3333333,0,451.2)"
       clip-path="url(#clipPath23)" />
    <path
       id="path24"
       d="m 3.2230571,-7.0092694 c 0,-0.2695313 0,-0.2929688 -0.2578125,-0.2929688 -0.6796875,0.703125 -1.640625,0.703125 -1.99218751,0.703125 v 0.3398438 c 0.22265621,0 0.86718751,0 1.44140621,-0.28125 v 5.67187497 c 0,0.3984375 -0.035156,0.52734375 -1.0195312,0.52734375 H 1.0433696 v 0.33984375 c 0.3867187,-0.03515625 1.3359375,-0.03515625 1.7695312,-0.03515625 0.4453125,0 1.3945313,0 1.78125,0.03515625 V -0.34130068 H 4.2425883 c -0.984375,0 -1.0195312,-0.1171875 -1.0195312,-0.52734375 z m 7.2949219,3.5039062 c 0,-0.8789062 -0.05859,-1.7578125 -0.433594,-2.5664062 -0.503906,-1.0546875 -1.4062498,-1.2304688 -1.863281,-1.2304688 -0.65625,0 -1.4648438,0.2929688 -1.9101563,1.3125 -0.3515625,0.75 -0.4101562,1.6054688 -0.4101562,2.484375 0,0.8203125 0.046875,1.8046875 0.5039062,2.63671877 0.46875,0.890625 1.265625,1.11328125 1.8046875,1.11328125 0.5859375,0 1.4179688,-0.234375 1.9101558,-1.27734372 0.339844,-0.75 0.398438,-1.6054688 0.398438,-2.4726563 z m -2.3085938,3.50390627 c -0.4335937,0 -1.078125,-0.26953125 -1.2773437,-1.32421877 -0.1171875,-0.65625 -0.1171875,-1.6640625 -0.1171875,-2.3085937 0,-0.703125 0,-1.4296875 0.09375,-2.015625 0.1992187,-1.3125 1.0195312,-1.40625 1.3007812,-1.40625 0.3632813,0 1.078125,0.1992187 1.2890625,1.2773437 0.1054688,0.6210938 0.1054688,1.453125 0.1054688,2.1445313 0,0.8203125 0,1.5585937 -0.1171875,2.2617187 -0.1640625,1.04296877 -0.7851563,1.37109377 -1.2773438,1.37109377 z m 0,0"
       style="fill:#262626;fill-opacity:1;fill-rule:nonzero;stroke:none"
       aria-label="10"
       transform="matrix(1.3333333,0,0,1.3333333,36.186966,282.82226)" />
    <path
       id="path25"
       d="M 47.599159,172.21874 H 446.4"
       style="fill:none;stroke:#cccccc;stroke-width:1;stroke-linecap:round;stroke-linejoin:round;stroke-miterlimit:10;stroke-dasharray:none;stroke-opacity:1"
       transform="matrix(1.3333333,0,0,-1.3333333,0,451.2)"
       clip-path="url(#clipPath26)" />
    <path
       id="path27"
       d="m 3.2230571,-7.007919 c 0,-0.2695312 0,-0.2929687 -0.2578125,-0.2929687 -0.6796875,0.703125 -1.640625,0.703125 -1.99218751,0.703125 v 0.3398437 c 0.22265621,0 0.86718751,0 1.44140621,-0.28125 v 5.67187504 c 0,0.3984375 -0.035156,0.52734375 -1.0195312,0.52734375 H 1.0433696 V -1.064568e-4 C 1.4300883,-0.03526271 2.3793071,-0.03526271 2.8129008,-0.03526271 c 0.4453125,0 1.3945313,0 1.78125,0.0351562532 V -0.33995021 H 4.2425883 c -0.984375,0 -1.0195312,-0.1171875 -1.0195312,-0.52734375 z m 7.1777339,4.8046875 c 0,-1.3007812 -0.9023433,-2.4023437 -2.085937,-2.4023437 -0.5273438,0 -0.9960938,0.1757812 -1.3945313,0.5625 v -2.1328125 c 0.2226563,0.058594 0.5859375,0.140625 0.9375,0.140625 1.3476563,0 2.109375,-0.9960938 2.109375,-1.1367188 0,-0.070312 -0.023437,-0.1289062 -0.1054687,-0.1289062 -0.011719,0 -0.035156,0 -0.082031,0.035156 -0.2226562,0.1054688 -0.7617187,0.3164063 -1.5,0.3164063 -0.4335937,0 -0.9375,-0.070312 -1.453125,-0.3046875 -0.082031,-0.035156 -0.1054687,-0.035156 -0.1289062,-0.035156 -0.1171875,0 -0.1171875,0.09375 -0.1171875,0.2695313 v 3.234375 c 0,0.1992187 0,0.2929687 0.1640625,0.2929687 0.070312,0 0.09375,-0.035156 0.140625,-0.1054687 0.1171875,-0.1757813 0.5273437,-0.7617188 1.40625,-0.7617188 0.5742187,0 0.84375,0.5039063 0.9375,0.703125 0.1757812,0.3984375 0.1992187,0.8320313 0.1992187,1.3828125 0,0.375 0,1.03125 -0.2695312,1.50000004 -0.2578125,0.421875 -0.6679688,0.703125 -1.171875,0.703125 -0.796875,0 -1.4179688,-0.57421875 -1.6054688,-1.21875004 0.023437,0.011719 0.058594,0.023437 0.1875,0.023437 0.3515625,0 0.5390625,-0.28125 0.5390625,-0.5390625 0,-0.2695312 -0.1875,-0.5390625 -0.5390625,-0.5390625 -0.1640625,0 -0.5390625,0.070312 -0.5390625,0.5742188 0,0.94921874 0.75,2.01562499 1.9804688,2.01562499 1.265625,0 2.3906242,-1.0546875 2.3906242,-2.44921839 z m 0,0"
       style="fill:#262626;fill-opacity:1;fill-rule:nonzero;stroke:none"
       aria-label="15"
       transform="matrix(1.3333333,0,0,1.3333333,36.186966,226.64858)" />
    <path
       id="path28"
       d="M 47.599159,214.34899 H 446.4"
       style="fill:none;stroke:#cccccc;stroke-width:1;stroke-linecap:round;stroke-linejoin:round;stroke-miterlimit:10;stroke-dasharray:none;stroke-opacity:1"
       transform="matrix(1.3333333,0,0,-1.3333333,0,451.2)"
       clip-path="url(#clipPath29)" />
    <path
       id="path30"
       d="M 1.3949321,-0.84250599 2.5550883,-1.967506 c 1.7109375,-1.5117187 2.3671875,-2.109375 2.3671875,-3.1992187 0,-1.2539063 -0.984375,-2.1328125 -2.3203125,-2.1328125 -1.2421875,0 -2.05078121,1.0078125 -2.05078121,1.9921875 0,0.609375 0.53906251,0.609375 0.57421871,0.609375 0.1875,0 0.5742188,-0.1289063 0.5742188,-0.5859375 0,-0.28125 -0.1992188,-0.5625 -0.5859375,-0.5625 -0.082031,0 -0.1054688,0 -0.14062501,0.011719 0.25781251,-0.7148437 0.84375001,-1.125 1.47656251,-1.125 1.0078125,0 1.4765625,0.890625 1.4765625,1.7929688 0,0.8671875 -0.5507813,1.734375 -1.1484375,2.4140625 l -2.10937501,2.34374996 c -0.1171875,0.12890625 -0.1171875,0.15234375 -0.1171875,0.41015625 H 4.6175883 L 4.9222758,-1.9089122 h -0.28125 c -0.046875,0.328125 -0.1289062,0.8203125 -0.234375,0.98437496 -0.082031,0.0820313 -0.796875,0.0820313 -1.0429687,0.0820313 z M 10.517979,-3.5026622 c 0,-0.8789063 -0.05859,-1.7578125 -0.433594,-2.5664063 -0.503906,-1.0546875 -1.4062498,-1.2304687 -1.863281,-1.2304687 -0.65625,0 -1.4648438,0.2929687 -1.9101563,1.3125 -0.3515625,0.75 -0.4101562,1.6054687 -0.4101562,2.484375 0,0.8203125 0.046875,1.8046875 0.5039062,2.63671871 0.46875,0.890625 1.265625,1.11328125 1.8046875,1.11328125 0.5859375,0 1.4179688,-0.234375 1.9101558,-1.27734376 0.339844,-0.75 0.398438,-1.6054687 0.398438,-2.4726562 z M 8.2093852,0.00124401 c -0.4335937,0 -1.078125,-0.26953125 -1.2773437,-1.32421871 -0.1171875,-0.65625 -0.1171875,-1.6640625 -0.1171875,-2.3085938 0,-0.703125 0,-1.4296875 0.09375,-2.015625 0.1992187,-1.3125 1.0195312,-1.40625 1.3007812,-1.40625 0.3632813,0 1.078125,0.1992188 1.2890625,1.2773438 0.1054688,0.6210937 0.1054688,1.453125 0.1054688,2.1445312 0,0.8203125 0,1.5585938 -0.1171875,2.2617188 -0.1640625,1.04296871 -0.7851563,1.37109371 -1.2773438,1.37109371 z m 0,0"
       style="fill:#262626;fill-opacity:1;fill-rule:nonzero;stroke:none"
       aria-label="20"
       transform="matrix(1.3333333,0,0,1.3333333,36.186966,170.4749)" />
    <path
       id="path31"
       d="M 47.599159,256.47925 H 446.4"
       style="fill:none;stroke:#cccccc;stroke-width:1;stroke-linecap:round;stroke-linejoin:round;stroke-miterlimit:10;stroke-dasharray:none;stroke-opacity:1"
       transform="matrix(1.3333333,0,0,-1.3333333,0,451.2)"
       clip-path="url(#clipPath32)" />
    <path
       id="path33"
       d="m 1.3949321,-0.8440852 1.1601562,-1.125 c 1.7109375,-1.5117188 2.3671875,-2.109375 2.3671875,-3.1992188 0,-1.2539062 -0.984375,-2.1328125 -2.3203125,-2.1328125 -1.2421875,0 -2.05078121,1.0078125 -2.05078121,1.9921875 0,0.609375 0.53906251,0.609375 0.57421871,0.609375 0.1875,0 0.5742188,-0.1289062 0.5742188,-0.5859375 0,-0.28125 -0.1992188,-0.5625 -0.5859375,-0.5625 -0.082031,0 -0.1054688,0 -0.14062501,0.011719 0.25781251,-0.7148438 0.84375001,-1.125 1.47656251,-1.125 1.0078125,0 1.4765625,0.890625 1.4765625,1.7929687 0,0.8671875 -0.5507813,1.734375 -1.1484375,2.4140625 L 0.66836959,-0.41049145 C 0.55118209,-0.2815852 0.55118209,-0.2581477 0.55118209,-3.352022e-4 H 4.6175883 L 4.9222758,-1.9104915 h -0.28125 c -0.046875,0.328125 -0.1289062,0.8203125 -0.234375,0.98437505 -0.082031,0.0820313 -0.796875,0.0820313 -1.0429687,0.0820313 z m 9.0058589,-1.359375 c 0,-1.3007813 -0.9023433,-2.4023438 -2.085937,-2.4023438 -0.5273438,0 -0.9960938,0.1757813 -1.3945313,0.5625 v -2.1328125 c 0.2226563,0.058594 0.5859375,0.140625 0.9375,0.140625 1.3476563,0 2.109375,-0.9960937 2.109375,-1.1367187 0,-0.070312 -0.023437,-0.1289063 -0.1054687,-0.1289063 -0.011719,0 -0.035156,0 -0.082031,0.035156 -0.2226562,0.1054687 -0.7617187,0.3164062 -1.5,0.3164062 -0.4335937,0 -0.9375,-0.070312 -1.453125,-0.3046875 -0.082031,-0.035156 -0.1054687,-0.035156 -0.1289062,-0.035156 -0.1171875,0 -0.1171875,0.09375 -0.1171875,0.2695312 v 3.234375 c 0,0.1992188 0,0.2929688 0.1640625,0.2929688 0.070312,0 0.09375,-0.035156 0.140625,-0.1054688 0.1171875,-0.1757812 0.5273437,-0.7617187 1.40625,-0.7617187 0.5742187,0 0.84375,0.5039062 0.9375,0.703125 0.1757812,0.3984375 0.1992187,0.8320312 0.1992187,1.3828125 0,0.375 0,1.03125 -0.2695312,1.5 -0.2578125,0.421875 -0.6679688,0.703125 -1.171875,0.703125 -0.796875,0 -1.4179688,-0.57421875 -1.6054688,-1.21875 0.023437,0.011719 0.058594,0.023437 0.1875,0.023437 0.3515625,0 0.5390625,-0.28125 0.5390625,-0.5390625 0,-0.2695313 -0.1875,-0.5390625 -0.5390625,-0.5390625 -0.1640625,0 -0.5390625,0.070312 -0.5390625,0.5742187 0,0.9492188 0.75,2.01562505 1.9804688,2.01562505 1.265625,0 2.3906242,-1.0546875 2.3906242,-2.44921815 z m 0,0"
       style="fill:#262626;fill-opacity:1;fill-rule:nonzero;stroke:none"
       aria-label="25"
       transform="matrix(1.3333333,0,0,1.3333333,36.186966,114.30123)" />
    <path
       id="path34"
       d="M 47.599159,298.60951 H 446.4"
       style="fill:none;stroke:#cccccc;stroke-width:1;stroke-linecap:round;stroke-linejoin:round;stroke-miterlimit:10;stroke-dasharray:none;stroke-opacity:1"
       transform="matrix(1.3333333,0,0,-1.3333333,0,451.2)"
       clip-path="url(#clipPath35)" />
    <path
       id="path36"
       d="m 3.1761821,-3.8544535 c 0.9023437,-0.2929687 1.5351562,-1.0664062 1.5351562,-1.9335937 0,-0.890625 -0.9609375,-1.5117188 -2.015625,-1.5117188 -1.1015625,0 -1.93359371,0.65625 -1.93359371,1.4882813 0,0.3632812 0.234375,0.5742187 0.55078121,0.5742187 0.3398438,0 0.5625,-0.234375 0.5625,-0.5625 0,-0.5390625 -0.515625,-0.5390625 -0.6796875,-0.5390625 0.3398438,-0.5390625 1.0664063,-0.6796875 1.453125,-0.6796875 0.4570313,0 1.0546875,0.234375 1.0546875,1.21875 0,0.140625 -0.023437,0.7734375 -0.3046875,1.2539063 -0.328125,0.5273437 -0.703125,0.5625 -0.9726562,0.5742187 -0.09375,0.011719 -0.3515625,0.023437 -0.4335938,0.023437 -0.082031,0.011719 -0.1640625,0.023437 -0.1640625,0.140625 0,0.1171875 0.082031,0.1171875 0.2695313,0.1171875 h 0.4804687 c 0.890625,0 1.3007813,0.7382813 1.3007813,1.8164063 0,1.48828122 -0.7617188,1.80468747 -1.2421875,1.80468747 -0.46875,0 -1.2890625,-0.1875 -1.67578126,-0.83203125 0.38671876,0.0585938 0.72656246,-0.18750002 0.72656246,-0.59765622 0,-0.3984375 -0.2929687,-0.609375 -0.609375,-0.609375 -0.26953121,0 -0.62109371,0.1523437 -0.62109371,0.6328125 0,0.99609372 1.01953121,1.72265622 2.21484371,1.72265622 1.3359375,0 2.3320313,-1.0078125 2.3320313,-2.12109372 0,-0.9023438 -0.6914063,-1.7460938 -1.828125,-1.9804683 z m 7.3417969,0.3515625 c 0,-0.8789062 -0.05859,-1.7578125 -0.433594,-2.5664062 C 9.580479,-7.1239847 8.6781352,-7.299766 8.221104,-7.299766 c -0.65625,0 -1.4648438,0.2929688 -1.9101563,1.3125 -0.3515625,0.75 -0.4101562,1.6054688 -0.4101562,2.484375 0,0.8203125 0.046875,1.8046875 0.5039062,2.63671877 0.46875,0.890625 1.265625,1.11328125 1.8046875,1.11328125 0.5859375,0 1.4179688,-0.234375 1.9101558,-1.27734372 0.339844,-0.75 0.398438,-1.6054688 0.398438,-2.4726563 z M 8.2093852,0.00101527 c -0.4335937,0 -1.078125,-0.26953125 -1.2773437,-1.32421877 C 6.814854,-1.9794535 6.814854,-2.987266 6.814854,-3.6317972 c 0,-0.703125 0,-1.4296875 0.09375,-2.015625 0.1992187,-1.3125 1.0195312,-1.40625 1.3007812,-1.40625 0.3632813,0 1.078125,0.1992187 1.2890625,1.2773437 0.1054688,0.6210938 0.1054688,1.453125 0.1054688,2.1445313 0,0.8203125 0,1.5585937 -0.1171875,2.2617187 -0.1640625,1.04296877 -0.7851563,1.37109377 -1.2773438,1.37109377 z m 0,0"
       style="fill:#262626;fill-opacity:1;fill-rule:nonzero;stroke:none"
       aria-label="30"
       transform="matrix(1.3333333,0,0,1.3333333,36.186966,58.127553)" />
    <path
       id="path37"
       d="m 4.1253586,-10.758684 c 1.171875,0.05859 2.1328125,0.632813 2.3789063,1.7578128 -0.140625,-0.035156 -0.1757813,-0.035156 -0.2226563,-0.035156 -0.3046875,0 -0.6679687,0.2109375 -0.6679687,0.6679688 0,0.3984375 0.28125,0.65625 0.6445312,0.65625 0.328125,0 0.6796875,-0.1640625 0.6796875,-0.7382813 0,-1.3828125 -0.9140625,-2.6718753 -2.8125,-2.7656253 v -0.738281 H 3.6683274 v 0.75 c -1.6757813,0.128906 -2.81250001,1.5000001 -2.81250001,3.0000001 0,0.8671875 0.37500001,1.6171875 0.91406251,2.1679687 0.5742187,0.5507813 1.0664062,0.6796875 1.8984375,0.890625 v 4.83984376 c -0.6210938,-0.046875 -2.0742188,-0.3046875 -2.390625,-1.99218746 0.046875,0.023437 0.1523437,0.046875 0.2578125,0.046875 0.2695312,0 0.6445312,-0.1875 0.6445312,-0.6679688 0,-0.3867187 -0.2695312,-0.65625 -0.6445312,-0.65625 -0.328125,0 -0.67968751,0.1640625 -0.67968751,0.7382813 0,1.453125 0.86718751,2.87109371 2.81250001,2.99999996 v 0.7265625 h 0.4570312 v -0.75 c 1.7109375,-0.15234375 2.8125,-1.61718746 2.8125,-3.23437496 0,-0.6796875 -0.1992187,-1.5117188 -0.8789062,-2.2734375 C 5.4612961,-6.0243087 4.7698899,-6.20009 4.1253586,-6.3641525 Z m -0.4570312,4.2656253 c -2.0625,-0.4101563 -2.0625,-1.921875 -2.0625,-2.1328125 0,-0.9492188 0.7382812,-1.9687498 2.0625,-2.1210938 z m 0.4570312,1.4765625 c 1.9804688,0.3984375 2.0625,2.0390625 2.0625,2.3554687 0,1.125 -0.796875,2.20312501 -2.0625,2.34375001 z m 0,0"
       style="fill:#262626;fill-opacity:1;fill-rule:nonzero;stroke:none"
       aria-label="$"
       transform="matrix(0,-1.3333333,1.3333333,0,25.540224,247.19188)" />
    <path
       id="path38"
       d="m 4.4190279,-4.2434613 c -0.1757813,0 -0.3398438,0 -0.4921875,0.1640625 -0.1757813,0.1640625 -0.1992188,0.3515625 -0.1992188,0.4335938 0,0.2695312 0.1992188,0.3867187 0.4101563,0.3867187 0.328125,0 0.6328125,-0.2695312 0.6328125,-0.7148437 0,-0.5507813 -0.5273438,-0.9609375 -1.3242188,-0.9609375 -1.5,0 -2.98828121,1.59375 -2.98828121,3.1757812 0,0.99609376 0.64453121,1.87500001 1.80468751,1.87500001 1.59375,0 2.53125,-1.17187501 2.53125,-1.31250001 0,-0.070312 -0.058594,-0.140625 -0.1289063,-0.140625 -0.058594,0 -0.082031,0.023437 -0.140625,0.1054688 -0.890625,1.11328121 -2.0976562,1.11328121 -2.2382812,1.11328121 -0.703125,0 -1.0078125,-0.55078125 -1.0078125,-1.21875001 0,-0.4570312 0.234375,-1.546875 0.609375,-2.2382812 0.3398437,-0.6328125 0.9609375,-1.1132813 1.5703125,-1.1132813 0.375,0 0.8085937,0.1523438 0.9609375,0.4453125 z m 3.2841797,-3.375 c 0,-0.011719 0,-0.1289062 -0.1523438,-0.1289062 -0.2578125,0 -1.0664062,0.09375 -1.359375,0.1171875 -0.09375,0.011719 -0.2109375,0.023437 -0.2109375,0.234375 0,0.1171875 0.1171875,0.1171875 0.28125,0.1171875 0.5390625,0 0.5390625,0.1054687 0.5390625,0.1875 l -0.023437,0.234375 -1.40625,5.578125 c -0.035156,0.1171875 -0.058594,0.1992187 -0.058594,0.37499996 0,0.6328125 0.4921875,1.01953125 1.0195312,1.01953125 0.3632813,0 0.6445313,-0.22265625 0.8320313,-0.62109375 0.1992187,-0.421875 0.328125,-1.06640626 0.328125,-1.08984376 0,-0.1171875 -0.09375,-0.1171875 -0.1289063,-0.1171875 -0.1054687,0 -0.1171875,0.046875 -0.1523437,0.1992188 -0.1875,0.72656246 -0.4101563,1.39453121 -0.8554688,1.39453121 -0.328125,0 -0.328125,-0.36328125 -0.328125,-0.515625 0,-0.26953125 0.011719,-0.328125 0.070312,-0.53906251 z m 5.8886714,4.5703125 c 0,-1.1601562 -0.773437,-1.8867187 -1.78125,-1.8867187 -1.488281,0 -2.9882808,1.5820312 -2.9882808,3.1757812 0,1.10156251 0.75,1.87500001 1.7812498,1.87500001 1.488281,0 2.988281,-1.53515621 2.988281,-3.16406251 z m -2.976562,2.92968751 c -0.480469,0 -0.9726563,-0.3515625 -0.9726563,-1.21875001 0,-0.5507812 0.2929688,-1.7578125 0.6562503,-2.3203125 0.550781,-0.8671875 1.195312,-1.03125 1.5,-1.03125 0.644531,0 0.984375,0.5390625 0.984375,1.2070313 0,0.4335937 -0.222657,1.6054687 -0.644532,2.3320312 -0.398437,0.64453126 -1.007812,1.03125001 -1.523437,1.03125001 z m 7.051758,-0.50390625 c 0.128906,0.45703125 0.515625,0.73828125 0.996094,0.73828125 0.386718,0 0.644531,-0.24609375 0.820312,-0.609375 0.199219,-0.3984375 0.339844,-1.07812501 0.339844,-1.10156251 0,-0.1171875 -0.105469,-0.1171875 -0.128906,-0.1171875 -0.117188,0 -0.128907,0.046875 -0.164063,0.1992188 -0.152344,0.63281246 -0.363281,1.39453121 -0.832031,1.39453121 -0.234375,0 -0.351563,-0.15234375 -0.351563,-0.515625 0,-0.24609375 0.140625,-0.77343751 0.222657,-1.16015621 l 0.316406,-1.2070313 c 0.03516,-0.1640625 0.140625,-0.5976562 0.1875,-0.7617187 0.05859,-0.2578125 0.164062,-0.6796875 0.164062,-0.75 0,-0.1992188 -0.152343,-0.2929688 -0.316406,-0.2929688 -0.05859,0 -0.351562,0.011719 -0.433594,0.3867188 -0.210937,0.8203125 -0.703125,2.765625 -0.84375,3.3632812 -0.01172,0.035156 -0.457031,0.93750001 -1.265625,0.93750001 -0.585937,0 -0.691406,-0.50390625 -0.691406,-0.92578121 0,-0.6210938 0.304688,-1.5 0.597656,-2.2734375 0.140625,-0.328125 0.1875,-0.4921875 0.1875,-0.703125 0,-0.5039063 -0.351562,-0.9140625 -0.914062,-0.9140625 -1.054688,0 -1.464844,1.6171875 -1.464844,1.7226562 0,0.1054688 0.105469,0.1054688 0.128906,0.1054688 0.117188,0 0.128907,-0.023437 0.175782,-0.1992188 0.28125,-0.9726562 0.703125,-1.3828125 1.125,-1.3828125 0.105468,0 0.28125,0.011719 0.28125,0.375 0,0.2578125 -0.117188,0.5859375 -0.1875,0.75 -0.410157,1.1132813 -0.644532,1.8046875 -0.644532,2.34375 0,1.06640626 0.773438,1.33593751 1.371094,1.33593751 0.738281,0 1.136719,-0.4921875 1.324219,-0.73828125 z m 8.235351,-6.99609376 c 0,-0.011719 0,-0.1289062 -0.140625,-0.1289062 -0.164062,0 -1.230468,0.1054687 -1.417968,0.1289062 -0.09375,0.011719 -0.152344,0.058594 -0.152344,0.2109375 0,0.1289063 0.09375,0.1289063 0.257812,0.1289063 0.539063,0 0.5625,0.082031 0.5625,0.1875 l -0.03516,0.234375 -0.667969,2.6367187 c -0.199218,-0.4101562 -0.527343,-0.7148437 -1.019531,-0.7148437 -1.3125,0 -2.695312,1.640625 -2.695312,3.2695312 0,1.05468751 0.609375,1.78125001 1.488281,1.78125001 0.222656,0 0.773437,-0.03515625 1.441406,-0.83203125 0.09375,0.46875 0.480469,0.83203125 1.019531,0.83203125 0.386719,0 0.644532,-0.24609375 0.832032,-0.609375 0.1875,-0.3984375 0.328125,-1.07812501 0.328125,-1.10156251 0,-0.1171875 -0.09375,-0.1171875 -0.128907,-0.1171875 -0.117187,0 -0.128906,0.046875 -0.164062,0.1992188 -0.1875,0.72656246 -0.386719,1.39453121 -0.84375,1.39453121 -0.304688,0 -0.339844,-0.29296875 -0.339844,-0.515625 0,-0.26953125 0.02344,-0.3515625 0.07031,-0.53906251 z m -2.320312,6.2929688 c -0.05859,0.1992187 -0.05859,0.2226562 -0.222656,0.41015621 -0.492188,0.609375 -0.949219,0.796875 -1.253907,0.796875 -0.5625,0 -0.714843,-0.62109375 -0.714843,-1.05468751 0,-0.5625 0.351562,-1.9335937 0.609375,-2.4375 0.351562,-0.6679687 0.84375,-1.078125 1.289062,-1.078125 0.726563,0 0.890625,0.9140625 0.890625,0.984375 0,0.070312 -0.02344,0.1289063 -0.03516,0.1875 z m 0,0"
       style="fill:#262626;fill-opacity:1;fill-rule:nonzero;stroke:none"
       aria-label="cl&#10;oud"
       transform="matrix(0,-1.3333333,1.3333333,0,28.728261,236.78657)" />
    <path
       id="path39"
       d="m 5.1797032,3.8663163 c 0,-0.046875 0,-0.070312 -0.2695313,-0.3398438 -1.59375,-1.6171875 -2.484375,-4.24218749 -2.484375,-7.5 0,-3.0820312 0.75,-5.7539062 2.5898438,-7.6289065 0.1640625,-0.140625 0.1640625,-0.175781 0.1640625,-0.222656 0,-0.09375 -0.082031,-0.128906 -0.140625,-0.128906 -0.2109375,0 -1.5117188,1.148437 -2.296875,2.707031 -0.8085938,1.6171875 -1.1835938,3.3164063 -1.1835938,5.2734375 0,1.4179688 0.2226563,3.31640626 1.0546875,5.0273438 0.9375,1.9101562 2.25,2.9414062 2.4257813,2.9414062 0.058594,0 0.140625,-0.023437 0.140625,-0.1289062 z M 10.183609,-10.758684 c 1.171875,0.05859 2.132813,0.632813 2.378907,1.7578128 -0.140625,-0.035156 -0.175782,-0.035156 -0.222657,-0.035156 -0.304687,0 -0.667968,0.2109375 -0.667968,0.6679688 0,0.3984375 0.28125,0.65625 0.644531,0.65625 0.328125,0 0.679687,-0.1640625 0.679687,-0.7382813 0,-1.3828125 -0.914062,-2.6718753 -2.8125,-2.7656253 v -0.738281 H 9.7265782 v 0.75 c -1.6757813,0.128906 -2.8125,1.5000001 -2.8125,3.0000001 0,0.8671875 0.375,1.6171875 0.9140625,2.1679687 0.5742187,0.5507813 1.0664062,0.6796875 1.8984375,0.890625 v 4.83984376 c -0.6210938,-0.046875 -2.0742188,-0.3046875 -2.390625,-1.99218746 0.046875,0.023437 0.1523437,0.046875 0.2578125,0.046875 0.2695312,0 0.6445312,-0.1875 0.6445312,-0.6679688 0,-0.3867187 -0.2695312,-0.65625 -0.6445312,-0.65625 -0.328125,0 -0.6796875,0.1640625 -0.6796875,0.7382813 0,1.453125 0.8671875,2.87109371 2.8125,2.99999996 v 0.7265625 h 0.4570308 v -0.75 c 1.710938,-0.15234375 2.8125,-1.61718746 2.8125,-3.23437496 0,-0.6796875 -0.199218,-1.5117188 -0.878906,-2.2734375 -0.597656,-0.65625 -1.289062,-0.8320313 -1.933594,-0.9960938 z m -0.4570308,4.2656253 c -2.0625,-0.4101563 -2.0625,-1.921875 -2.0625,-2.1328125 0,-0.9492188 0.7382812,-1.9687498 2.0625,-2.1210938 z m 0.4570308,1.4765625 c 1.980469,0.3984375 2.0625,2.0390625 2.0625,2.3554687 0,1.125 -0.796875,2.20312501 -2.0625,2.34375001 z m 0,0"
       style="fill:#262626;fill-opacity:1;fill-rule:nonzero;stroke:none"
       aria-label="($"
       transform="matrix(0,-1.3333333,1.3333333,0,25.540224,201.48049)" />
    <path
       id="path40"
       d="m 6.8332923,-11.368059 c 0,-0.01172 0.1054687,-0.246093 0.1054687,-0.28125 0,-0.1875 -0.1640625,-0.304687 -0.2929687,-0.304687 -0.082031,0 -0.2226563,0 -0.3515625,0.351562 L 0.96219852,3.3975663 c 0,0.011719 -0.10546875,0.2460937 -0.10546875,0.28125 0,0.1875 0.16406253,0.3046875 0.29296873,0.3046875 0.09375,0 0.234375,-0.011719 0.3515625,-0.3515625 z m 5.4374997,0.703125 c 0.02344,-0.05859 0.04687,-0.152343 0.04687,-0.234375 0,-0.164062 -0.152343,-0.164062 -0.1875,-0.164062 -0.01172,0 -0.796875,0.07031 -0.878906,0.08203 -0.269531,0.01172 -0.503906,0.04687 -0.796875,0.05859 -0.398437,0.03516 -0.5039062,0.04687 -0.5039062,0.339844 0,0.164062 0.1171872,0.164062 0.3515622,0.164062 0.773438,0 0.796875,0.140625 0.796875,0.292969 0,0.105469 -0.03516,0.222656 -0.05859,0.2812498 l -2.3085942,9.22265621 c -0.058594,0.234375 -0.058594,0.26953125 -0.058594,0.36328125 0,0.3515625 0.2695313,0.421875 0.4335938,0.421875 0.2695312,0 0.46875,-0.2109375 0.5507812,-0.38671875 L 10.372355,-3.10634 c 0.08203,-0.3515625 0.175781,-0.6914062 0.257812,-1.0429687 0.175782,-0.6679688 0.175782,-0.6796875 0.480469,-1.1484375 0.304688,-0.4570313 1.019531,-1.4179688 2.25,-1.4179688 0.632813,0 0.855469,0.4804688 0.855469,1.125 0,0.890625 -0.621094,2.625 -0.972656,3.5859375 -0.140625,0.375 -0.222657,0.5859375 -0.222657,0.8671875 0,0.72656251 0.492188,1.30078126 1.265625,1.30078126 1.476563,0 2.039063,-2.34374996 2.039063,-2.43749996 0,-0.082031 -0.07031,-0.1523438 -0.164063,-0.1523438 -0.140625,0 -0.164062,0.046875 -0.234375,0.3164063 -0.375,1.27734371 -0.960937,1.94531246 -1.59375,1.94531246 -0.164062,0 -0.421875,-0.0117188 -0.421875,-0.515625 0,-0.42187496 0.199219,-0.92578126 0.257813,-1.10156246 0.28125,-0.7734375 1.007812,-2.6484375 1.007812,-3.5742188 0,-0.9609375 -0.5625,-1.6757812 -1.769531,-1.6757812 -0.914062,0 -1.710937,0.4335937 -2.367187,1.265625 z m 0,0"
       style="fill:#262626;fill-opacity:1;fill-rule:nonzero;stroke:none"
       aria-label="/h"
       transform="matrix(0,-1.3333333,1.3333333,0,25.540224,182.98215)" />
    <path
       id="path41"
       d="m 4.4996435,-3.9735275 c 0,-1.2070312 -0.1640625,-3.1875 -1.0546875,-5.0273437 -0.9375,-1.9218748 -2.25,-2.9531248 -2.4257812,-2.9531248 -0.0585938,0 -0.140625,0.03516 -0.140625,0.128906 0,0.04687 0,0.08203 0.2695312,0.351563 1.59375,1.6054683 2.484375,4.242187 2.484375,7.4882808 0,3.09374996 -0.75,5.7539062 -2.6015625,7.6289062 -0.1523437,0.1523438 -0.1523437,0.1757813 -0.1523437,0.2226563 0,0.1054687 0.0820313,0.1289062 0.140625,0.1289062 0.2109375,0 1.5117187,-1.1484375 2.296875,-2.7070312 0.8085937,-1.62890629 1.1835937,-3.3398438 1.1835937,-5.2617188 z m 0,0"
       style="fill:#262626;fill-opacity:1;fill-rule:nonzero;stroke:none"
       aria-label=")"
       transform="matrix(0,-1.3333333,1.3333333,0,25.540224,160.59718)" />
    <g
       id="g43">
      <path
         d="M 54.245839,45.827969 H 71.970321 V 76.025364 H 54.245839 Z"
         style="fill:#3b528b;fill-opacity:0.7;fill-rule:nonzero;stroke:#3b528b;stroke-width:2;stroke-linecap:butt;stroke-linejoin:miter;stroke-miterlimit:10;stroke-dasharray:none;stroke-opacity:1"
         transform="matrix(1.3333333,0,0,-1.3333333,0,451.2)"
         clip-path="url(#clipPath42)"
         id="path43" />
    </g>
    <g
       id="g45">
      <path
         d="M 71.970321,45.827969 H 89.694803 V 76.025364 H 71.970321 Z"
         style="fill:#21918c;fill-opacity:0.7;fill-rule:nonzero;stroke:#21918c;stroke-width:2;stroke-linecap:butt;stroke-linejoin:miter;stroke-miterlimit:10;stroke-dasharray:none;stroke-opacity:1"
         transform="matrix(1.3333333,0,0,-1.3333333,0,451.2)"
         clip-path="url(#clipPath44)"
         id="path45" />
    </g>
    <g
       id="g47">
      <path
         d="M 89.694803,45.827969 H 107.41929 V 76.025364 H 89.694803 Z"
         style="fill:#5ec962;fill-opacity:0.7;fill-rule:nonzero;stroke:#5ec962;stroke-width:2;stroke-linecap:butt;stroke-linejoin:miter;stroke-miterlimit:10;stroke-dasharray:none;stroke-opacity:1"
         transform="matrix(1.3333333,0,0,-1.3333333,0,451.2)"
         clip-path="url(#clipPath46)"
         id="path47" />
    </g>
    <g
       id="g49">
      <path
         d="m 120.71265,45.827969 h 17.72448 v 55.668961 h -17.72448 z"
         style="fill:#3b528b;fill-opacity:0.7;fill-rule:nonzero;stroke:#3b528b;stroke-width:2;stroke-linecap:butt;stroke-linejoin:miter;stroke-miterlimit:10;stroke-dasharray:none;stroke-opacity:1"
         transform="matrix(1.3333333,0,0,-1.3333333,0,451.2)"
         clip-path="url(#clipPath48)"
         id="path49" />
    </g>
    <g
       id="g51">
      <path
         d="m 138.43713,45.827969 h 17.72448 v 51.25026 h -17.72448 z"
         style="fill:#21918c;fill-opacity:0.7;fill-rule:nonzero;stroke:#21918c;stroke-width:2;stroke-linecap:butt;stroke-linejoin:miter;stroke-miterlimit:10;stroke-dasharray:none;stroke-opacity:1"
         transform="matrix(1.3333333,0,0,-1.3333333,0,451.2)"
         clip-path="url(#clipPath50)"
         id="path51" />
    </g>
    <g
       id="g53">
      <path
         d="m 156.16161,45.827969 h 17.72448 v 30.211408 h -17.72448 z"
         style="fill:#5ec962;fill-opacity:0.7;fill-rule:nonzero;stroke:#5ec962;stroke-width:2;stroke-linecap:butt;stroke-linejoin:miter;stroke-miterlimit:10;stroke-dasharray:none;stroke-opacity:1"
         transform="matrix(1.3333333,0,0,-1.3333333,0,451.2)"
         clip-path="url(#clipPath52)"
         id="path53" />
    </g>
    <g
       id="g55">
      <path
         d="m 187.17945,45.827969 h 17.72448 v 80.340791 h -17.72448 z"
         style="fill:#3b528b;fill-opacity:0.7;fill-rule:nonzero;stroke:#3b528b;stroke-width:2;stroke-linecap:butt;stroke-linejoin:miter;stroke-miterlimit:10;stroke-dasharray:none;stroke-opacity:1"
         transform="matrix(1.3333333,0,0,-1.3333333,0,451.2)"
         clip-path="url(#clipPath54)"
         id="path55" />
    </g>
    <g
       id="g57">
      <path
         d="m 204.90393,45.827969 h 17.72449 v 76.526171 h -17.72449 z"
         style="fill:#21918c;fill-opacity:0.7;fill-rule:nonzero;stroke:#21918c;stroke-width:2;stroke-linecap:butt;stroke-linejoin:miter;stroke-miterlimit:10;stroke-dasharray:none;stroke-opacity:1"
         transform="matrix(1.3333333,0,0,-1.3333333,0,451.2)"
         clip-path="url(#clipPath56)"
         id="path57" />
    </g>
    <g
       id="g59">
      <path
         d="M 222.62842,45.827969 H 240.3529 V 78.675876 H 222.62842 Z"
         style="fill:#5ec962;fill-opacity:0.7;fill-rule:nonzero;stroke:#5ec962;stroke-width:2;stroke-linecap:butt;stroke-linejoin:miter;stroke-miterlimit:10;stroke-dasharray:none;stroke-opacity:1"
         transform="matrix(1.3333333,0,0,-1.3333333,0,451.2)"
         clip-path="url(#clipPath58)"
         id="path59" />
    </g>
    <g
       id="g61">
      <path
         d="m 253.64626,45.827969 h 17.72448 V 146.42761 h -17.72448 z"
         style="fill:#3b528b;fill-opacity:0.7;fill-rule:nonzero;stroke:#3b528b;stroke-width:2;stroke-linecap:butt;stroke-linejoin:miter;stroke-miterlimit:10;stroke-dasharray:none;stroke-opacity:1"
         transform="matrix(1.3333333,0,0,-1.3333333,0,451.2)"
         clip-path="url(#clipPath60)"
         id="path61" />
    </g>
    <g
       id="g63">
      <path
         d="m 271.37074,45.827969 h 17.72448 V 146.65744 h -17.72448 z"
         style="fill:#21918c;fill-opacity:0.7;fill-rule:nonzero;stroke:#21918c;stroke-width:2;stroke-linecap:butt;stroke-linejoin:miter;stroke-miterlimit:10;stroke-dasharray:none;stroke-opacity:1"
         transform="matrix(1.3333333,0,0,-1.3333333,0,451.2)"
         clip-path="url(#clipPath62)"
         id="path63" />
    </g>
    <g
       id="g65">
      <path
         d="m 289.09522,45.827969 h 17.72449 v 38.443677 h -17.72449 z"
         style="fill:#5ec962;fill-opacity:0.7;fill-rule:nonzero;stroke:#5ec962;stroke-width:2;stroke-linecap:butt;stroke-linejoin:miter;stroke-miterlimit:10;stroke-dasharray:none;stroke-opacity:1"
         transform="matrix(1.3333333,0,0,-1.3333333,0,451.2)"
         clip-path="url(#clipPath64)"
         id="path65" />
    </g>
    <g
       id="g67">
      <path
         d="m 320.11307,45.827969 h 17.72448 V 166.92145 h -17.72448 z"
         style="fill:#3b528b;fill-opacity:0.7;fill-rule:nonzero;stroke:#3b528b;stroke-width:2;stroke-linecap:butt;stroke-linejoin:miter;stroke-miterlimit:10;stroke-dasharray:none;stroke-opacity:1"
         transform="matrix(1.3333333,0,0,-1.3333333,0,451.2)"
         clip-path="url(#clipPath66)"
         id="path67" />
    </g>
    <g
       id="g69">
      <path
         d="m 337.83755,45.827969 h 17.72448 V 173.41265 h -17.72448 z"
         style="fill:#21918c;fill-opacity:0.7;fill-rule:nonzero;stroke:#21918c;stroke-width:2;stroke-linecap:butt;stroke-linejoin:miter;stroke-miterlimit:10;stroke-dasharray:none;stroke-opacity:1"
         transform="matrix(1.3333333,0,0,-1.3333333,0,451.2)"
         clip-path="url(#clipPath68)"
         id="path69" />
    </g>
    <g
       id="g71">
      <path
         d="m 355.56203,45.827969 h 17.72448 v 57.912721 h -17.72448 z"
         style="fill:#5ec962;fill-opacity:0.7;fill-rule:nonzero;stroke:#5ec962;stroke-width:2;stroke-linecap:butt;stroke-linejoin:miter;stroke-miterlimit:10;stroke-dasharray:none;stroke-opacity:1"
         transform="matrix(1.3333333,0,0,-1.3333333,0,451.2)"
         clip-path="url(#clipPath70)"
         id="path71" />
    </g>
    <g
       id="g73">
      <path
         d="m 386.57987,45.827969 h 17.72449 V 317.60453 h -17.72449 z"
         style="fill:#3b528b;fill-opacity:0.7;fill-rule:nonzero;stroke:#3b528b;stroke-width:2;stroke-linecap:butt;stroke-linejoin:miter;stroke-miterlimit:10;stroke-dasharray:none;stroke-opacity:1"
         transform="matrix(1.3333333,0,0,-1.3333333,0,451.2)"
         clip-path="url(#clipPath72)"
         id="path73" />
    </g>
    <g
       id="g75">
      <path
         d="m 404.30436,45.827969 h 17.72448 V 317.60453 h -17.72448 z"
         style="fill:#21918c;fill-opacity:0.7;fill-rule:nonzero;stroke:#21918c;stroke-width:2;stroke-linecap:butt;stroke-linejoin:miter;stroke-miterlimit:10;stroke-dasharray:none;stroke-opacity:1"
         transform="matrix(1.3333333,0,0,-1.3333333,0,451.2)"
         clip-path="url(#clipPath74)"
         id="path75" />
    </g>
    <g
       id="g77">
      <path
         d="m 422.02884,45.827969 h 17.72448 V 317.60453 h -17.72448 z"
         style="fill:#5ec962;fill-opacity:0.7;fill-rule:nonzero;stroke:#5ec962;stroke-width:2;stroke-linecap:butt;stroke-linejoin:miter;stroke-miterlimit:10;stroke-dasharray:none;stroke-opacity:1"
         transform="matrix(1.3333333,0,0,-1.3333333,0,451.2)"
         clip-path="url(#clipPath76)"
         id="path77" />
    </g>
    <path
       id="path78"
       d="m 63.10808,76.02466 v 0.0014"
       style="fill:none;stroke:#3b528b;stroke-width:1.5;stroke-linecap:square;stroke-linejoin:round;stroke-miterlimit:10;stroke-dasharray:none;stroke-opacity:1"
       transform="matrix(1.3333333,0,0,-1.3333333,0,451.2)"
       clip-path="url(#clipPath79)" />
    <path
       id="path80"
       d="m 129.57489,100.68363 v 1.62659"
       style="fill:none;stroke:#3b528b;stroke-width:1.5;stroke-linecap:square;stroke-linejoin:round;stroke-miterlimit:10;stroke-dasharray:none;stroke-opacity:1"
       transform="matrix(1.3333333,0,0,-1.3333333,0,451.2)"
       clip-path="url(#clipPath81)" />
    <path
       id="path82"
       d="m 196.04169,124.75547 v 2.82657"
       style="fill:none;stroke:#3b528b;stroke-width:1.5;stroke-linecap:square;stroke-linejoin:round;stroke-miterlimit:10;stroke-dasharray:none;stroke-opacity:1"
       transform="matrix(1.3333333,0,0,-1.3333333,0,451.2)"
       clip-path="url(#clipPath83)" />
    <path
       id="path84"
       d="m 262.5085,144.9211 v 3.01302"
       style="fill:none;stroke:#3b528b;stroke-width:1.5;stroke-linecap:square;stroke-linejoin:round;stroke-miterlimit:10;stroke-dasharray:none;stroke-opacity:1"
       transform="matrix(1.3333333,0,0,-1.3333333,0,451.2)"
       clip-path="url(#clipPath85)" />
    <path
       id="path86"
       d="m 328.97531,165.41433 v 3.01423"
       style="fill:none;stroke:#3b528b;stroke-width:1.5;stroke-linecap:square;stroke-linejoin:round;stroke-miterlimit:10;stroke-dasharray:none;stroke-opacity:1"
       transform="matrix(1.3333333,0,0,-1.3333333,0,451.2)"
       clip-path="url(#clipPath87)" />
    <path
       id="path88"
       d="m 395.44211,317.59819 v 0.0127"
       style="fill:none;stroke:#3b528b;stroke-width:1.5;stroke-linecap:square;stroke-linejoin:round;stroke-miterlimit:10;stroke-dasharray:none;stroke-opacity:1"
       transform="matrix(1.3333333,0,0,-1.3333333,0,451.2)"
       clip-path="url(#clipPath89)" />
    <path
       id="path90"
       d="m 80.832562,76.02466 v 0.0014"
       style="fill:none;stroke:#21918c;stroke-width:1.5;stroke-linecap:square;stroke-linejoin:round;stroke-miterlimit:10;stroke-dasharray:none;stroke-opacity:1"
       transform="matrix(1.3333333,0,0,-1.3333333,0,451.2)"
       clip-path="url(#clipPath91)" />
    <path
       id="path92"
       d="m 147.29937,96.75652 v 0.643419"
       style="fill:none;stroke:#21918c;stroke-width:1.5;stroke-linecap:square;stroke-linejoin:round;stroke-miterlimit:10;stroke-dasharray:none;stroke-opacity:1"
       transform="matrix(1.3333333,0,0,-1.3333333,0,451.2)"
       clip-path="url(#clipPath93)" />
    <path
       id="path94"
       d="m 213.76618,122.01637 v 0.67553"
       style="fill:none;stroke:#21918c;stroke-width:1.5;stroke-linecap:square;stroke-linejoin:round;stroke-miterlimit:10;stroke-dasharray:none;stroke-opacity:1"
       transform="matrix(1.3333333,0,0,-1.3333333,0,451.2)"
       clip-path="url(#clipPath95)" />
    <path
       id="path96"
       d="m 280.23298,146.16369 v 0.98751"
       style="fill:none;stroke:#21918c;stroke-width:1.5;stroke-linecap:square;stroke-linejoin:round;stroke-miterlimit:10;stroke-dasharray:none;stroke-opacity:1"
       transform="matrix(1.3333333,0,0,-1.3333333,0,451.2)"
       clip-path="url(#clipPath97)" />
    <path
       id="path98"
       d="m 346.69979,173.02369 v 0.77792"
       style="fill:none;stroke:#21918c;stroke-width:1.5;stroke-linecap:square;stroke-linejoin:round;stroke-miterlimit:10;stroke-dasharray:none;stroke-opacity:1"
       transform="matrix(1.3333333,0,0,-1.3333333,0,451.2)"
       clip-path="url(#clipPath99)" />
    <path
       id="path100"
       d="m 413.1666,317.59819 v 0.0127"
       style="fill:none;stroke:#21918c;stroke-width:1.5;stroke-linecap:square;stroke-linejoin:round;stroke-miterlimit:10;stroke-dasharray:none;stroke-opacity:1"
       transform="matrix(1.3333333,0,0,-1.3333333,0,451.2)"
       clip-path="url(#clipPath101)" />
    <path
       id="path102"
       d="m 98.557044,76.02466 v 0.0014"
       style="fill:none;stroke:#5ec962;stroke-width:1.5;stroke-linecap:square;stroke-linejoin:round;stroke-miterlimit:10;stroke-dasharray:none;stroke-opacity:1"
       transform="matrix(1.3333333,0,0,-1.3333333,0,451.2)"
       clip-path="url(#clipPath103)" />
    <path
       id="path104"
       d="m 165.02385,76.005556 v 0.06764"
       style="fill:none;stroke:#5ec962;stroke-width:1.5;stroke-linecap:square;stroke-linejoin:round;stroke-miterlimit:10;stroke-dasharray:none;stroke-opacity:1"
       transform="matrix(1.3333333,0,0,-1.3333333,0,451.2)"
       clip-path="url(#clipPath105)" />
    <path
       id="path106"
       d="M 231.49066,77.694492 V 79.65726"
       style="fill:none;stroke:#5ec962;stroke-width:1.5;stroke-linecap:square;stroke-linejoin:round;stroke-miterlimit:10;stroke-dasharray:none;stroke-opacity:1"
       transform="matrix(1.3333333,0,0,-1.3333333,0,451.2)"
       clip-path="url(#clipPath107)" />
    <path
       id="path108"
       d="m 297.95747,82.707797 v 3.127697"
       style="fill:none;stroke:#5ec962;stroke-width:1.5;stroke-linecap:square;stroke-linejoin:round;stroke-miterlimit:10;stroke-dasharray:none;stroke-opacity:1"
       transform="matrix(1.3333333,0,0,-1.3333333,0,451.2)"
       clip-path="url(#clipPath109)" />
    <path
       id="path110"
       d="m 364.42427,101.51294 v 4.45549"
       style="fill:none;stroke:#5ec962;stroke-width:1.5;stroke-linecap:square;stroke-linejoin:round;stroke-miterlimit:10;stroke-dasharray:none;stroke-opacity:1"
       transform="matrix(1.3333333,0,0,-1.3333333,0,451.2)"
       clip-path="url(#clipPath111)" />
    <path
       id="path112"
       d="m 430.89108,317.59819 v 0.0127"
       style="fill:none;stroke:#5ec962;stroke-width:1.5;stroke-linecap:square;stroke-linejoin:round;stroke-miterlimit:10;stroke-dasharray:none;stroke-opacity:1"
       transform="matrix(1.3333333,0,0,-1.3333333,0,451.2)"
       clip-path="url(#clipPath113)" />
    <path
       id="path114"
       d="M 47.599159,45.827969 V 331.2"
       style="fill:none;stroke:#cccccc;stroke-width:1.25;stroke-linecap:square;stroke-linejoin:miter;stroke-miterlimit:10;stroke-dasharray:none;stroke-opacity:1"
       transform="matrix(1.3333333,0,0,-1.3333333,0,451.2)" />
    <path
       id="path115"
       d="M 446.4,45.827969 V 331.2"
       style="fill:none;stroke:#cccccc;stroke-width:1.25;stroke-linecap:square;stroke-linejoin:miter;stroke-miterlimit:10;stroke-dasharray:none;stroke-opacity:1"
       transform="matrix(1.3333333,0,0,-1.3333333,0,451.2)" />
    <path
       id="path116"
       d="M 47.599159,45.827969 H 446.4"
       style="fill:none;stroke:#cccccc;stroke-width:1.25;stroke-linecap:square;stroke-linejoin:miter;stroke-miterlimit:10;stroke-dasharray:none;stroke-opacity:1"
       transform="matrix(1.3333333,0,0,-1.3333333,0,451.2)" />
    <path
       id="path117"
       d="M 47.599159,331.2 H 446.4"
       style="fill:none;stroke:#cccccc;stroke-width:1.25;stroke-linecap:square;stroke-linejoin:miter;stroke-miterlimit:10;stroke-dasharray:none;stroke-opacity:1"
       transform="matrix(1.3333333,0,0,-1.3333333,0,451.2)" />
    <path
       id="path118"
       d="m 462.784,144.9174 h 126.26582 c 2.13334,0 3.2,1.06666 3.2,3.2 v 83.9252 c 0,2.13333 -1.06666,3.2 -3.2,3.2 H 462.784 c -2.13333,0 -3.2,-1.06667 -3.2,-3.2 v -83.9252 c 0,-2.13334 1.06667,-3.2 3.2,-3.2 z"
       style="fill:#ffffff;fill-opacity:0.8;fill-rule:nonzero;stroke:#cccccc;stroke-width:1;stroke-linecap:butt;stroke-linejoin:miter;stroke-miterlimit:10;stroke-dasharray:none;stroke-opacity:0.8"
       transform="matrix(1.3333333,0,0,-1.3333333,0,451.2)" />
    <path
       id="path119"
       d="M 5.4379257,-7.9582105 C 4.9457382,-8.2277418 4.348082,-8.544148 3.2933945,-8.544148 c -1.6054688,0 -2.64843754,1.1484375 -2.64843754,2.34375 0,0.84375 0.51562504,1.3945312 0.57421874,1.453125 0.5859375,0.5976562 0.9960938,0.703125 1.7578125,0.9023437 1.0195313,0.2460938 1.1835938,0.2929688 1.5703125,0.6914063 0.1992188,0.2109375 0.375,0.5976562 0.375,1.0078125 0,0.8320312 -0.6796875,1.59374997 -1.7109375,1.59374997 -0.8671875,0 -1.8046875,-0.3515625 -2.50781249,-0.99609377 l -0.17578125,0.97265627 c 1.08984374,0.71484375 2.13281254,0.8203125 2.68359374,0.8203125 1.546875,0 2.6367188,-1.18359375 2.6367188,-2.50781247 0,-0.7617188 -0.375,-1.3359375 -0.6328125,-1.640625 -0.5507813,-0.5859375 -0.9960938,-0.703125 -1.7929688,-0.9023438 -0.8203125,-0.1992187 -1.1132812,-0.28125 -1.3828125,-0.5273437 -0.1523437,-0.1640625 -0.46875,-0.46875 -0.46875,-1.0078125 0,-0.7265625 0.65625,-1.4296875 1.6992188,-1.4296875 1.0195312,0 1.5585937,0.3984375 1.9921875,0.7734375 z m 8.8242183,2.6484375 h -0.867187 l -0.726563,2.4257812 c -0.164062,0.5742188 -0.492187,1.6992188 -0.550781,2.21484377 h -0.01172 C 12.070738,-0.96211678 11.883238,-1.7589918 11.637144,-2.6027418 L 10.840269,-5.309773 h -0.820312 l -0.6796875,2.34375 C 9.1176132,-2.2277418 8.8363632,-1.1964918 8.801207,-0.69258553 H 8.789488 C 8.777769,-0.92696053 8.648863,-1.559773 8.414488,-2.356648 L 7.570738,-5.309773 H 6.6566757 l 1.6054688,5.30859372 H 9.1879257 C 9.6332382,-1.512898 10.324644,-3.7746168 10.406676,-4.6183668 h 0.01172 c 0.02344,0.4921875 0.257813,1.359375 0.339844,1.6289063 l 0.855469,2.98828122 h 1.042969 z m 4.529297,1.8046875 c 0,-1.1484375 -0.832031,-1.9804688 -1.933593,-1.9804688 -0.726563,0 -1.265625,0.1640625 -1.839844,0.5039063 l 0.07031,0.7851562 c 0.527344,-0.3867187 1.066407,-0.5976562 1.769532,-0.5976562 0.550781,0 1.019531,0.4453125 1.019531,1.3125 v 0.4921875 c -0.539063,0.023437 -1.253906,0.058594 -1.96875,0.2929687 -0.796875,0.28125 -1.265625,0.7265625 -1.265625,1.3242188 0,0.52734372 0.304687,1.48828122 1.324219,1.48828122 0.65625,0 1.5,-0.1875 1.933593,-0.5625 v 0.4453125 h 0.890625 z m -0.914062,1.8984375 c 0,0.2460937 0,0.5273437 -0.386719,0.77343747 -0.328125,0.19921875 -0.738281,0.234375 -0.914062,0.234375 -0.644532,0 -1.089844,-0.3515625 -1.089844,-0.78515627 0,-0.8203125 1.664062,-0.9960937 2.390625,-0.9960937 z m 3.673828,1.06640622 c 0.410156,0.375 0.914062,0.65625 1.558594,0.65625 1.148437,0 2.167968,-1.16015622 2.167968,-2.77734372 0,-1.453125 -0.761718,-2.765625 -1.875,-2.765625 -0.492187,0 -1.253906,0.1523437 -1.875,0.6796875 v -0.5625 h -0.878906 v 7.6289062 h 0.902344 z m 0,-3.48046872 c 0.28125,-0.3984375 0.726562,-0.6679688 1.21875,-0.6679688 0.890625,0 1.605469,0.9023438 1.605469,2.0390625 0,1.1953125 -0.832032,2.05078127 -1.710938,2.05078127 -0.339844,0 -0.5625,-0.1171875 -0.773437,-0.28125 C 21.586363,-1.1496168 21.551207,-1.3605543 21.551207,-1.559773 Z m 8.170898,0.5625 c 1.640625,0 2.777344,-1.1835938 2.777344,-2.4257813 0,-1.265625 -1.160156,-2.4140625 -2.777344,-2.4140625 h -2.917968 v 8.29687502 h 1.03125 V -3.4582105 Z m -0.257812,-4.171875 c 1.40625,0 2.097656,0.84375 2.097656,1.734375 0,0.9492187 -0.726562,1.7460937 -2.097656,1.7460937 h -1.652344 v -3.4804687 z m 8.844726,5.0039062 c 0,-1.6171875 -1.183593,-2.859375 -2.554687,-2.859375 -1.40625,0 -2.566406,1.265625 -2.566406,2.859375 0,1.5585938 1.195312,2.74218752 2.554687,2.74218752 1.40625,0 2.566406,-1.20703122 2.566406,-2.74218752 z m -2.554687,2.00390627 c -0.867188,0 -1.664063,-0.71484377 -1.664063,-2.13281247 0,-1.4414063 0.902344,-2.015625 1.652344,-2.015625 0.820313,0 1.664063,0.6210937 1.664063,2.015625 0,1.4765625 -0.855469,2.13281247 -1.652344,2.13281247 z m 4.731445,-7.67578127 h -0.878906 v 8.29687502 h 0.878906 z m 2.821289,0.1757813 h -1.03125 v 1.03125 h 1.03125 z m -0.07031,2.8125 H 42.35785 v 5.30859372 h 0.878906 z m 5.724609,4.0195312 c -0.550781,0.44531252 -1.160156,0.66796877 -1.828125,0.66796877 -0.996094,0 -1.640625,-0.89062497 -1.640625,-2.03906247 0,-0.9960938 0.480469,-2.0859375 1.675781,-2.0859375 0.796875,0 1.136719,0.1875 1.652344,0.5390625 l 0.140625,-0.7734375 c -0.691406,-0.4101563 -1.089844,-0.5039063 -1.792969,-0.5039063 -1.652343,0 -2.578125,1.453125 -2.578125,2.8242188 0,1.5234375 1.101563,2.77734372 2.53125,2.77734372 0.585938,0 1.253907,-0.140625 1.910157,-0.62109375 0,-0.0351563 -0.03516,-0.41015625 -0.04687,-0.45703125 z m 5.589844,-4.0195312 h -0.902344 c -0.550781,1.40625 -1.464844,3.75 -1.511719,4.61718747 h -0.01172 C 52.066832,-1.3957105 51.422301,-2.9777418 51.328551,-3.2121168 l -0.84375,-2.0976562 h -0.949219 l 2.226562,5.30859372 -0.421875,1.08984378 c -0.257812,0.5976562 -0.433593,0.65625 -0.65625,0.65625 -0.164062,0 -0.550781,-0.035156 -0.914062,-0.1757813 l 0.07031,0.7734375 c 0.07031,0.011719 0.46875,0.09375 0.84375,0.09375 0.292969,0 0.855469,0 1.359375,-1.3125 z m 0,0"
       style="fill:#000000;fill-opacity:1;fill-rule:nonzero;stroke:none"
       aria-label="SwapPolicy"
       transform="matrix(1.3333333,0,0,1.3333333,664.70256,157.1461)" />
    <path
       id="path120"
       d="m 465.984,199.01583 h 32 v 11.2 h -32 z"
       style="fill:#3b528b;fill-opacity:0.7;fill-rule:nonzero;stroke:#3b528b;stroke-width:1;stroke-linecap:butt;stroke-linejoin:miter;stroke-miterlimit:10;stroke-dasharray:none;stroke-opacity:1"
       transform="matrix(1.3333333,0,0,-1.3333333,0,451.2)" />
    <path
       id="path121"
       d="m 465.984,204.61583 h 16 16"
       style="fill:none;stroke:#3b528b;stroke-width:1.5;stroke-linecap:square;stroke-linejoin:round;stroke-miterlimit:10;stroke-dasharray:none;stroke-opacity:1"
       transform="matrix(1.3333333,0,0,-1.3333333,0,451.2)" />
    <path
       id="path122"
       d="m 5.356625,-6.8216735 c -1.0195312,-0.4804687 -1.8867187,-0.4921875 -2.25,-0.4921875 -0.3632812,0 -2.578125,0 -2.578125,2.0742188 0,0.6914062 0.38671875,1.171875 0.6210938,1.3945312 0.5742187,0.4921875 0.9726562,0.5742188 1.9101562,0.7734375 0.5273438,0.1054688 1.453125,0.2929688 1.453125,1.1367188 0,1.10156248 -1.2421875,1.10156248 -1.4648437,1.10156248 -0.6445313,0 -1.5703125,-0.17578128 -2.4257813,-0.79687498 l -0.1875,1.08984373 c 0.0820312,0.046875 1.1601563,0.703125 2.625,0.703125 2.0625,0 2.5546875,-1.24218753 2.5546875,-2.19140623 0,-0.8085938 -0.4921875,-1.3242188 -0.5625,-1.3945313 C 4.466,-4.032611 3.9855313,-4.126361 3.012875,-4.3255797 2.4386563,-4.4310485 1.6300625,-4.595111 1.6300625,-5.391986 c 0,-0.984375 1.1132813,-0.984375 1.3242188,-0.984375 0.84375,0 1.5117187,0.1875 2.2148437,0.5859375 z m 11.730469,2.0273438 c 0,-1.1015625 -0.292969,-2.4375 -2.15625,-2.4375 -1.347656,0 -2.097656,0.9375 -2.34375,1.2890625 -0.28125,-1.0078125 -1.160156,-1.2890625 -1.992188,-1.2890625 -1.300781,0 -1.9921872,0.84375 -2.2617185,1.171875 v -1.1015625 h -1.125 v 7.16015623 H 8.4152188 V -3.9740172 c 0,-1.0429688 0.4101562,-2.3085938 1.5820312,-2.3085938 1.464844,0 1.546875,1.0078125 1.546875,1.59375 v 4.68750003 h 1.207031 V -3.9740172 c 0,-1.0429688 0.410157,-2.3085938 1.582032,-2.3085938 1.464843,0 1.546875,1.0078125 1.546875,1.59375 v 4.68750003 h 1.207031 z m 7.461914,0.1289062 c 0,-1.5351562 -1.101563,-2.6484375 -2.589844,-2.6484375 -0.949219,0 -1.664062,0.2226563 -2.449219,0.6679688 l 0.09375,1.0546875 c 0.703125,-0.515625 1.441407,-0.796875 2.355469,-0.796875 0.738281,0 1.371094,0.5859375 1.371094,1.7460937 v 0.65625 c -0.714844,0.035156 -1.664063,0.082031 -2.625,0.3984375 -1.066406,0.3632813 -1.6875,0.9609375 -1.6875,1.7578125 0,0.6914063 0.410156,1.99218753 1.769531,1.99218753 0.878906,0 1.992188,-0.2578125 2.578125,-0.75 v 0.5859375 h 1.183594 z m -1.21875,2.53125 c 0,0.3164063 0,0.703125 -0.515625,1.0195313 -0.433594,0.26953123 -0.972656,0.31640623 -1.21875,0.31640623 -0.855469,0 -1.453125,-0.45703123 -1.453125,-1.05468753 0,-1.078125 2.214844,-1.3242187 3.1875,-1.3242187 z m 4.438476,-1.359375 c 0,-1.6054687 1.207032,-2.6601562 2.636719,-2.671875 v -1.0664062 c -1.441406,0.011719 -2.285156,0.8554687 -2.71875,1.4765625 v -1.40625 h -1.101562 v 7.16015623 h 1.183593 z m 5.595704,-2.6601562 h 2.191406 V -7.079486 h -2.191406 v -2.0273437 h -1.101563 v 2.0273437 h -1.347656 v 0.9257813 h 1.3125 v 4.2890625 c 0,0.92578123 0.210937,2.02734373 1.3125,2.02734373 1.066406,0 1.792969,-0.375 2.285156,-0.62109375 L 35.591,-1.3841735 c -0.5625,0.49218753 -1.148437,0.55078128 -1.429687,0.55078128 -0.703125,0 -0.796875,-0.74999998 -0.796875,-1.30078128 z m 5.346679,5.43749998 c 0.550781,0.4921875 1.21875,0.87890625 2.074219,0.87890625 1.535156,0 2.90625,-1.54687503 2.90625,-3.71484373 0,-1.9335938 -1.019531,-3.6796875 -2.507813,-3.6796875 -0.65625,0 -1.675781,0.1992187 -2.496093,0.9023437 v -0.75 H 37.504086 V 3.092389 h 1.207031 z m 0,-4.64062498 c 0.375,-0.5390625 0.972656,-0.890625 1.628906,-0.890625 1.183594,0 2.132813,1.1953125 2.132813,2.7070312 0,1.59375 -1.089844,2.74218753 -2.273438,2.74218753 -0.445312,0 -0.75,-0.1640625 -1.03125,-0.38671873 -0.398437,-0.3515625 -0.457031,-0.6328125 -0.457031,-0.890625 z m 12.313477,0.5625 c 0,-0.9726563 -0.210938,-2.4375 -2.144531,-2.4375 -1.089844,0 -1.828125,0.6210937 -2.214844,1.0898437 v -4.921875 h -1.171875 v 11.06250003 h 1.207031 V -3.9740172 c 0,-0.984375 0.363281,-2.3085938 1.582031,-2.3085938 1.476563,0 1.523438,1.0429688 1.523438,1.59375 v 4.68750003 h 1.21875 z m 8.551758,1.2890625 c 0,-2.15625 -1.570313,-3.8085938 -3.410157,-3.8085938 -1.875,0 -3.421875,1.6875 -3.421875,3.8085938 0,2.0859375 1.59375,3.66796873 3.410157,3.66796873 1.875,0 3.421875,-1.61718753 3.421875,-3.66796873 z m -3.410157,2.67187498 c -1.148437,0 -2.214843,-0.94921878 -2.214843,-2.83593748 0,-1.921875 1.195312,-2.6953125 2.203125,-2.6953125 1.101562,0 2.214843,0.8320312 2.214843,2.6953125 0,1.9570312 -1.136718,2.83593748 -2.203125,2.83593748 z M 66.821469,-4.7943297 c 0,-0.9726563 -0.210938,-2.4375 -2.144531,-2.4375 -0.890625,0 -1.652344,0.3984375 -2.261719,1.1601562 v -1.0898437 h -1.125 v 7.16015623 H 62.49725 V -3.9740172 c 0,-0.984375 0.363281,-2.3085938 1.582031,-2.3085938 1.476563,0 1.523438,1.0429688 1.523438,1.59375 v 4.68750003 h 1.21875 z m 7.731445,1.2070312 c 0,-0.6796875 -0.07031,-1.6523437 -0.574219,-2.5078125 -0.65625,-1.0898437 -1.769531,-1.21875 -2.238281,-1.21875 -1.722656,0 -3.152344,1.6523438 -3.152344,3.7265625 0,2.109375 1.523438,3.75000003 3.375,3.75000003 0.738282,0 1.617188,-0.2109375 2.484375,-0.84375 0,-0.0703125 -0.04687,-0.56250003 -0.04687,-0.59765623 -0.01172,-0.011719 -0.04687,-0.3632813 -0.04687,-0.4335938 -0.9375,0.79687503 -1.875,0.91406253 -2.355468,0.91406253 -1.230469,0 -2.285157,-1.10156253 -2.308594,-2.78906253 z m -4.769531,-0.8554687 c 0.269531,-1.078125 1.019531,-1.921875 1.957031,-1.921875 0.492188,0 1.59375,0.2226562 1.863281,1.921875 z m 0,0"
       style="fill:#000000;fill-opacity:1;fill-rule:nonzero;stroke:none"
       aria-label="smartphone"
       transform="matrix(1.3333333,0,0,1.3333333,681.04533,185.84556)" />
    <path
       id="path123"
       d="m 465.984,176.71635 h 32 v 11.2 h -32 z"
       style="fill:#21918c;fill-opacity:0.7;fill-rule:nonzero;stroke:#21918c;stroke-width:1;stroke-linecap:butt;stroke-linejoin:miter;stroke-miterlimit:10;stroke-dasharray:none;stroke-opacity:1"
       transform="matrix(1.3333333,0,0,-1.3333333,0,451.2)" />
    <path
       id="path124"
       d="m 465.984,182.31635 h 16 16"
       style="fill:none;stroke:#21918c;stroke-width:1.5;stroke-linecap:square;stroke-linejoin:round;stroke-miterlimit:10;stroke-dasharray:none;stroke-opacity:1"
       transform="matrix(1.3333333,0,0,-1.3333333,0,451.2)" />
    <path
       id="path125"
       d="m 6.762875,-4.7930247 c 0,-0.9726562 -0.2109375,-2.4375 -2.1445312,-2.4375 -1.0898438,0 -1.828125,0.6210938 -2.2148438,1.0898438 V -11.062556 H 1.231625 V -5.59304e-5 H 2.4386563 V -3.9727122 c 0,-0.984375 0.3632812,-2.3085937 1.5820312,-2.3085937 1.4765625,0 1.5234375,1.0429687 1.5234375,1.59375 V -5.59304e-5 h 1.21875 z m 8.141602,-2.2851562 h -1.195313 c -0.738281,1.8867187 -1.957031,5.0039062 -2.027344,6.15234372 H 11.6701 C 11.58807,-1.8633372 10.74432,-3.9727122 10.615414,-4.2891184 L 9.4786953,-7.0781809 H 8.2247891 L 11.189633,-5.59304e-5 10.627133,1.4530691 c -0.351563,0.796875 -0.585938,0.8789062 -0.8671877,0.8789062 -0.2226562,0 -0.7382812,-0.058594 -1.2304687,-0.2460937 l 0.09375,1.0429687 c 0.09375,0.011719 0.6210937,0.1171875 1.1367187,0.1171875 0.3749997,0 1.1249997,0 1.8164067,-1.7460937 z m 2.648437,-3.9843751 H 16.36932 V -5.59304e-5 h 1.207032 V -0.71489968 c 0.738281,0.703125 1.523437,0.87890625 2.074218,0.87890625 1.511719,0 2.90625,-1.54687497 2.90625,-3.71484377 0,-1.96875 -1.054687,-3.6796875 -2.53125,-3.6796875 -0.46875,0 -1.488281,0.09375 -2.472656,0.890625 z m 0.02344,5.6953126 c 0.292968,-0.4453125 0.867187,-0.9140625 1.652343,-0.9140625 0.960938,0 2.109375,0.7382812 2.109375,2.7304687 0,2.0742188 -1.300781,2.75390627 -2.273437,2.75390627 -0.445313,0 -0.75,-0.1640625 -1.03125,-0.38671877 -0.386719,-0.328125 -0.457031,-0.6210937 -0.457031,-0.890625 z m 7.543945,1.875 c 0,-1.6054688 1.207031,-2.6601563 2.636719,-2.671875 v -1.0664063 c -1.441407,0.011719 -2.285157,0.8554688 -2.71875,1.4765625 v -1.40625 H 23.936703 V -5.59304e-5 h 1.183594 z m 5.387695,-7.3242186 H 29.1369 v 1.3710936 h 1.371094 z m -0.09375,3.7382811 H 29.230648 V -5.59304e-5 h 1.183594 z m 7.977539,-3.9843751 h -1.171875 v 4.6523438 c -0.738281,-0.5976562 -1.570312,-0.8203125 -2.25,-0.8203125 -1.511718,0 -2.753906,1.6171875 -2.753906,3.6914063 0,2.0625 1.171875,3.70312497 2.683594,3.70312497 0.597656,0 1.488281,-0.19921875 2.285156,-0.97265625 V -5.59304e-5 h 1.207031 z m -1.207031,9.1875001 c -0.386719,0.6796875 -0.9375,1.07812497 -1.640625,1.07812497 -0.972656,0 -2.121094,-0.74999997 -2.121094,-2.73046877 0,-2.109375 1.359375,-2.7539062 2.273438,-2.7539062 0.621094,0 1.136719,0.3164062 1.488281,0.84375 z m 0,0"
       style="fill:#000000;fill-opacity:1;fill-rule:nonzero;stroke:none"
       aria-label="hybrid"
       transform="matrix(1.3333333,0,0,1.3333333,681.04533,215.5782)" />
    <path
       id="path126"
       d="m 465.984,154.41687 h 32 v 11.2 h -32 z"
       style="fill:#5ec962;fill-opacity:0.7;fill-rule:nonzero;stroke:#5ec962;stroke-width:1;stroke-linecap:butt;stroke-linejoin:miter;stroke-miterlimit:10;stroke-dasharray:none;stroke-opacity:1"
       transform="matrix(1.3333333,0,0,-1.3333333,0,451.2)" />
    <path
       id="path127"
       d="m 465.984,160.01687 h 16 16"
       style="fill:none;stroke:#5ec962;stroke-width:1.5;stroke-linecap:square;stroke-linejoin:round;stroke-miterlimit:10;stroke-dasharray:none;stroke-opacity:1"
       transform="matrix(1.3333333,0,0,-1.3333333,0,451.2)" />
    <path
       id="path128"
       d="M 10.360531,-7.0768759 H 9.200375 l -0.9609375,3.234375 C 8.0167813,-3.0690634 7.5714688,-1.5807821 7.512875,-0.88937589 H 7.4894375 C 7.4425625,-1.2760946 7.18475,-2.3425009 6.856625,-3.4675009 L 5.8019375,-7.0768759 H 4.700375 l -0.9023437,3.1289063 c -0.2929688,0.984375 -0.6679688,2.3554687 -0.7265625,3.02343746 H 3.05975 C 3.0480313,-1.2292196 2.87225,-2.0729696 2.5675625,-3.1393759 l -1.1367187,-3.9375 H 0.2238125 L 2.356625,0.00124911 H 3.5870938 C 4.1964688,-2.0026571 5.12225,-5.0378134 5.216,-6.1510946 h 0.011719 c 0.035156,0.65625 0.3515625,1.8046875 0.46875,2.1679687 l 1.125,3.98437501 h 1.40625 z m 6.298828,3.4921875 c 0,-0.6796875 -0.07031,-1.6523437 -0.574218,-2.5078125 -0.65625,-1.0898437 -1.769532,-1.21875 -2.238282,-1.21875 -1.722656,0 -3.152343,1.6523438 -3.152343,3.7265625 0,2.109375 1.523437,3.75000001 3.375,3.75000001 0.738281,0 1.617187,-0.2109375 2.484375,-0.84375 0,-0.0703125 -0.04687,-0.56250001 -0.04687,-0.59765621 -0.01172,-0.011719 -0.04687,-0.3632813 -0.04687,-0.4335938 -0.9375,0.79687501 -1.875,0.91406251 -2.355469,0.91406251 -1.230469,0 -2.285156,-1.10156251 -2.308594,-2.78906251 z m -4.769531,-0.8554687 c 0.269531,-1.078125 1.019531,-1.921875 1.957031,-1.921875 0.492188,0 1.59375,0.2226562 1.863282,1.921875 z m 11.446289,-0.2226563 c 0,-1.5351562 -1.101562,-2.6484375 -2.589844,-2.6484375 -0.949218,0 -1.664062,0.2226563 -2.449218,0.6679688 l 0.09375,1.0546875 c 0.703125,-0.515625 1.441406,-0.796875 2.355468,-0.796875 0.738282,0 1.371094,0.5859375 1.371094,1.7460937 v 0.65625 c -0.714844,0.035156 -1.664062,0.082031 -2.625,0.3984375 -1.066406,0.3632813 -1.6875,0.9609375 -1.6875,1.7578125 0,0.6914063 0.410156,1.99218751 1.769531,1.99218751 0.878907,0 1.992188,-0.2578125 2.578125,-0.75 v 0.5859375 h 1.183594 z m -1.21875,2.53125 c 0,0.3164063 0,0.703125 -0.515625,1.0195313 -0.433594,0.26953121 -0.972656,0.31640621 -1.21875,0.31640621 -0.855469,0 -1.453125,-0.45703121 -1.453125,-1.05468751 0,-1.078125 2.214844,-1.3242187 3.1875,-1.3242187 z m 4.435547,-1.359375 c 0,-1.6054687 1.207031,-2.6601562 2.636719,-2.671875 v -1.0664062 c -1.441406,0.011719 -2.285156,0.8554687 -2.71875,1.4765625 v -1.40625 H 25.36932 v 7.16015621 h 1.183594 z m 9.099609,-1.171875 c 0,-1.5351562 -1.101562,-2.6484375 -2.589843,-2.6484375 -0.949219,0 -1.664063,0.2226563 -2.449219,0.6679688 l 0.09375,1.0546875 c 0.703125,-0.515625 1.441406,-0.796875 2.355469,-0.796875 0.738281,0 1.371093,0.5859375 1.371093,1.7460937 v 0.65625 c -0.714843,0.035156 -1.664062,0.082031 -2.625,0.3984375 -1.066406,0.3632813 -1.6875,0.9609375 -1.6875,1.7578125 0,0.6914063 0.410157,1.99218751 1.769532,1.99218751 0.878906,0 1.992187,-0.2578125 2.578125,-0.75 v 0.5859375 h 1.183593 z m -1.21875,2.53125 c 0,0.3164063 0,0.703125 -0.515625,1.0195313 -0.433593,0.26953121 -0.972656,0.31640621 -1.21875,0.31640621 -0.855468,0 -1.453125,-0.45703121 -1.453125,-1.05468751 0,-1.078125 2.214844,-1.3242187 3.1875,-1.3242187 z m 4.872071,-8.9296876 H 38.12225 V 0.00124911 h 1.207031 v -0.71484375 c 0.738282,0.703125 1.523438,0.87890625 2.074219,0.87890625 1.511719,0 2.90625,-1.54687501 2.90625,-3.71484371 0,-1.96875 -1.054687,-3.6796875 -2.53125,-3.6796875 -0.46875,0 -1.488281,0.09375 -2.472656,0.890625 z m 0.02344,5.6953126 c 0.292969,-0.4453125 0.867188,-0.9140625 1.652344,-0.9140625 0.960938,0 2.109375,0.7382813 2.109375,2.7304688 0,2.0742187 -1.300781,2.75390621 -2.273437,2.75390621 -0.445313,0 -0.75,-0.1640625 -1.03125,-0.38671871 -0.386719,-0.328125 -0.457032,-0.6210938 -0.457032,-0.890625 z M 47.30682,-11.061251 H 46.123227 V 0.00124911 h 1.183593 z m 7.734375,7.4765626 c 0,-0.6796875 -0.07031,-1.6523437 -0.574218,-2.5078125 -0.65625,-1.0898437 -1.769532,-1.21875 -2.238282,-1.21875 -1.722656,0 -3.152343,1.6523438 -3.152343,3.7265625 0,2.109375 1.523437,3.75000001 3.375,3.75000001 0.738281,0 1.617187,-0.2109375 2.484375,-0.84375 0,-0.0703125 -0.04687,-0.56250001 -0.04687,-0.59765621 -0.01172,-0.011719 -0.04687,-0.3632813 -0.04687,-0.4335938 -0.9375,0.79687501 -1.875,0.91406251 -2.355469,0.91406251 -1.230469,0 -2.285156,-1.10156251 -2.308594,-2.78906251 z m -4.769531,-0.8554687 c 0.269531,-1.078125 1.019531,-1.921875 1.957031,-1.921875 0.492188,0 1.59375,0.2226562 1.863282,1.921875 z m 0,0"
       style="fill:#000000;fill-opacity:1;fill-rule:nonzero;stroke:none"
       aria-label="wearable"
       transform="matrix(1.3333333,0,0,1.3333333,681.04533,245.31083)" />
  </g>
</svg>
